<svg xmlns="http://www.w3.org/2000/svg" width="32" height="32" viewBox="2.20 4.75 66.30 66.30" fill="none">
  <g transform="translate(-0.0629322, 48.721178)">
    <path d="M31.3,17.95c-5.06,0-9.64-1.04-13.75-3.13c-4.1-2.08-7.34-5.26-9.73-9.52C5.44,1.04,4.26-4.2,4.26-10.43c0-5.78,1.29-10.86,3.88-15.27c2.59-4.4,6.17-7.82,10.76-10.25c4.6-2.43,9.87-3.65,15.81-3.65c2.89,0,5.77,0.43,8.62,1.29c2.85,0.85,5.2,2.19,7.06,4.02c1.86,1.83,2.8,4.09,2.8,6.77c0,2.52-0.76,4.69-2.27,6.52c-1.52,1.83-3.52,2.75-6.02,2.75c-1.22,0-2.39-0.28-3.54-0.85c-1.13-0.57-1.73-1.31-1.78-2.23c0-0.05,0.39-0.36,1.17-0.94c0.79-0.58,1.52-1.36,2.18-2.33c0.68-0.97,1.02-2.14,1.02-3.5c0-2.4-0.96-4.34-2.88-5.83c-1.92-1.48-4.4-2.23-7.42-2.23c-3.6,0-6.86,0.99-9.77,2.96c-2.91,1.97-5.21,4.86-6.91,8.67c-1.68,3.79-2.52,8.32-2.52,13.58c0,5.08,0.83,9.49,2.48,13.21c1.66,3.72,3.99,6.57,6.99,8.54c2.99,1.97,6.47,2.96,10.43,2.96c1.86,0,3.49-0.09,4.87-0.29c1.4-0.21,2.91-0.57,4.56-1.08V3.64c0-2-0.08-3.4-0.23-4.21c-0.14-0.8-0.61-1.4-1.4-1.79c-0.78-0.4-2.1-0.6-3.96-0.6c-0.64,0-1.1-0.09-1.4-0.29c-0.29-0.21-0.46-0.71-0.51-1.52c0-0.51,0.15-0.95,0.47-1.31c0.32-0.38,0.77-0.56,1.36-0.56c3.67,0.17,6.87,0.25,9.6,0.25c2.61,0,5.75-0.08,9.43-0.25c0.52,0,0.92,0.19,1.21,0.56c0.3,0.36,0.44,0.8,0.44,1.31c-0.06,0.81-0.23,1.31-0.53,1.52c-0.29,0.2-0.75,0.29-1.4,0.29c-1.74,0-2.99,0.23-3.75,0.69c-0.75,0.46-1.22,1.1-1.4,1.94c-0.17,0.82-0.25,2.15-0.25,3.98v10.12c-3.43,1.6-6.58,2.69-9.43,3.29C39.18,17.65,35.6,17.95,31.3,17.95z" fill="#1a1a1a"/>
  </g>
  <circle cx="62.5" cy="57.91" r="4" fill="#57886c"/>
</svg>
