<svg xmlns="http://www.w3.org/2000/svg" width="32" height="32" viewBox="0 0 32 32" fill="none">
  <path d="M11.38 26.25L11.38 26.25Q9.57 26.25 8.00 25.54Q6.43 24.82 5.23 23.57Q4.02 22.31 3.35 20.67Q2.68 19.03 2.68 17.20L2.68 17.20Q2.68 15.25 3.38 13.56Q4.08 11.86 5.31 10.55Q6.54 9.24 8.17 8.50Q9.79 7.76 11.68 7.76L11.68 7.76Q13.18 7.76 14.74 7.97Q16.30 8.17 17.94 8.55L17.94 8.55Q18.02 8.55 18.12 9.17Q18.21 9.79 18.32 10.62Q18.43 11.45 18.50 12.15Q18.57 12.85 18.57 13.04L18.57 13.04Q18.57 13.26 18.08 13.26L18.08 13.26Q17.56 13.26 17.23 13.12L17.23 13.12Q17.09 12.60 16.79 12.05Q16.49 11.51 15.89 10.82L15.89 10.82Q15.29 10.14 14.22 9.72Q13.16 9.29 11.82 9.29L11.82 9.29Q6.89 9.29 6.89 16.57L6.89 16.57Q6.89 18.56 7.44 20.37L7.44 20.37Q7.80 21.54 8.52 22.53Q9.25 23.51 10.30 24.11Q11.35 24.71 12.69 24.71L12.69 24.71Q13.92 24.71 14.44 24.28L14.44 24.28Q14.74 24.03 14.74 23.46L14.74 23.46L14.74 21.54Q14.74 20.09 14.55 19.44L14.55 19.44Q14.36 18.70 12.75 18.70L12.75 18.70Q12.69 18.70 12.65 18.48Q12.61 18.26 12.64 18.00Q12.66 17.74 12.72 17.69L12.72 17.69Q13.81 17.74 14.91 17.80Q16 17.85 16.79 17.85L16.79 17.85Q17.20 17.85 20.48 17.69L20.48 17.69Q20.57 17.93 20.57 18.23L20.57 18.23Q20.57 18.73 20.46 18.73L20.46 18.73Q19.83 18.73 19.01 19.14L19.01 19.14Q18.57 19.33 18.57 21.30L18.57 21.30L18.57 22.88Q18.57 23.38 18.65 23.62L18.65 23.62Q18.73 23.87 18.73 23.92L18.73 23.92Q18.73 24.39 18.16 24.69L18.16 24.69Q17.15 25.21 16.60 25.43L16.60 25.43Q16.03 25.67 14.59 25.96Q13.16 26.25 11.38 26.25Z" fill="#1a1a1a"/>
  <circle cx="25" cy="24" r="3.5" fill="#57886c"/>
</svg>
