<svg xmlns="http://www.w3.org/2000/svg" width="229" height="40" viewBox="0 0 229 40" fill="none">
  <path d="M12.06 32.32L12.06 32.32Q9.74 32.32 7.72 31.40Q5.70 30.49 4.15 28.87Q2.60 27.25 1.74 25.14Q0.88 23.04 0.88 20.68L0.88 20.68Q0.88 18.18 1.78 16.00Q2.67 13.82 4.25 12.14Q5.84 10.45 7.93 9.50Q10.02 8.55 12.45 8.55L12.45 8.55Q14.38 8.55 16.38 8.81Q18.39 9.08 20.50 9.57L20.50 9.57Q20.60 9.57 20.72 10.36Q20.85 11.15 20.99 12.22Q21.13 13.30 21.22 14.19Q21.30 15.09 21.30 15.34L21.30 15.34Q21.30 15.62 20.67 15.62L20.67 15.62Q20.00 15.62 19.58 15.44L19.58 15.44Q19.41 14.77 19.02 14.07Q18.63 13.37 17.86 12.49L17.86 12.49Q17.09 11.61 15.71 11.06Q14.34 10.52 12.62 10.52L12.62 10.52Q6.29 10.52 6.29 19.87L6.29 19.87Q6.29 22.44 7.00 24.76L7.00 24.76Q7.45 26.27 8.38 27.54Q9.32 28.80 10.67 29.57Q12.02 30.35 13.75 30.35L13.75 30.35Q15.33 30.35 16.00 29.79L16.00 29.79Q16.38 29.47 16.38 28.73L16.38 28.73L16.38 26.27Q16.38 24.41 16.14 23.56L16.14 23.56Q15.89 22.61 13.82 22.61L13.82 22.61Q13.75 22.61 13.69 22.33Q13.64 22.05 13.68 21.72Q13.71 21.38 13.78 21.31L13.78 21.31Q15.19 21.38 16.59 21.45Q18 21.52 19.02 21.52L19.02 21.52Q19.55 21.52 23.77 21.31L23.77 21.31Q23.87 21.63 23.87 22.02L23.87 22.02Q23.87 22.65 23.73 22.65L23.73 22.65Q22.92 22.65 21.87 23.18L21.87 23.18Q21.30 23.42 21.30 25.95L21.30 25.95L21.30 27.99Q21.30 28.63 21.41 28.94L21.41 28.94Q21.52 29.26 21.52 29.33L21.52 29.33Q21.52 29.93 20.78 30.31L20.78 30.31Q19.48 30.98 18.77 31.26L18.77 31.26Q18.04 31.58 16.19 31.95Q14.34 32.32 12.06 32.32ZM33.96 32.25L33.96 32.25Q31.68 32.25 29.79 31.17Q27.91 30.10 26.81 28.29Q25.70 26.48 25.70 24.27L25.70 24.27Q25.70 22.02 26.81 20.22Q27.91 18.43 29.79 17.36Q31.68 16.29 33.96 16.29L33.96 16.29Q36.28 16.29 38.14 17.36Q40.01 18.43 41.12 20.22Q42.22 22.02 42.22 24.27L42.22 24.27Q42.22 26.48 41.13 28.29Q40.04 30.10 38.16 31.17Q36.28 32.25 33.96 32.25ZM34.31 30.31L34.31 30.31Q35.30 30.31 35.93 29.64Q36.56 28.98 36.86 27.87Q37.16 26.76 37.16 25.50L37.16 25.50Q37.16 18.22 33.47 18.22L33.47 18.22Q32.48 18.22 31.87 18.92Q31.25 19.63 30.97 20.75Q30.69 21.88 30.69 23.18L30.69 23.18Q30.69 30.31 34.31 30.31ZM57.23 32.07L56.74 32.18Q56.53 32.18 56.53 31.54L56.53 31.54L56.53 30.24Q56.53 29.96 56.39 30.10L56.39 30.10Q55.65 30.88 54.23 31.51Q52.80 32.14 51.15 32.14L51.15 32.14Q49.78 32.14 48.74 31.30Q47.71 30.45 47.14 29.03Q46.58 27.61 46.58 25.88L46.58 25.88L46.58 22.47Q46.58 20.50 45.95 19.84L45.95 19.84Q45.67 19.48 45.19 19.34Q44.72 19.20 44.37 19.15Q44.02 19.10 44.02 19.03L44.02 19.03Q44.02 17.80 44.19 17.80L44.19 17.80Q44.51 17.80 45.37 17.66Q46.23 17.52 47.25 17.32Q48.27 17.13 49.20 16.90Q50.13 16.67 50.63 16.53L50.63 16.53Q50.73 16.50 50.82 16.46Q50.91 16.43 51.01 16.43L51.01 16.43Q51.19 16.43 51.36 16.65Q51.54 16.88 51.54 17.02L51.54 17.02Q51.36 18.57 51.26 19.45Q51.15 20.33 51.15 20.54L51.15 20.54L51.15 24.30Q51.15 27.04 51.86 28.15Q52.56 29.26 54.21 29.26L54.21 29.26Q55.41 29.26 56.00 28.71Q56.60 28.17 56.60 27.50L56.60 27.50L56.60 22.47Q56.60 20.50 55.97 19.84L55.97 19.84Q55.69 19.48 55.21 19.34Q54.74 19.20 54.39 19.15Q54.04 19.10 54.04 19.03L54.04 19.03Q54.04 17.80 54.21 17.80L54.21 17.80Q54.53 17.80 55.39 17.66Q56.25 17.52 57.27 17.32Q58.29 17.13 59.22 16.90Q60.15 16.67 60.64 16.53L60.64 16.53L61.03 16.43Q61.21 16.43 61.38 16.65Q61.56 16.88 61.56 17.02L61.56 17.02Q61.38 18.57 61.28 19.45Q61.17 20.33 61.17 20.50L61.17 20.50L61.17 27.39Q61.17 29.26 61.52 29.61L61.52 29.61Q61.70 29.79 62.09 29.87Q62.47 29.96 62.86 29.96L62.86 29.96L63.21 29.96Q63.35 30.00 63.35 30.24L63.35 30.24Q63.35 31.26 63.14 31.26L63.14 31.26Q60.96 31.47 59.50 31.68Q58.04 31.89 57.23 32.07L57.23 32.07ZM74.11 32.39L74.11 32.39Q73.72 32.39 73.55 32.11L73.55 32.11L67.71 18.96Q67.39 18.25 66.59 17.99Q65.78 17.73 65.25 17.73L65.25 17.73Q65.11 17.73 65.11 17.02L65.11 17.02Q65.11 16.57 65.25 16.43L65.25 16.43Q65.46 16.43 66.06 16.48Q66.66 16.53 67.45 16.58Q68.24 16.64 68.94 16.67Q69.64 16.71 70.07 16.71L70.07 16.71Q70.52 16.71 71.21 16.67Q71.89 16.64 72.88 16.57L72.88 16.57Q73.83 16.50 74.39 16.46Q74.95 16.43 75.09 16.43L75.09 16.43Q75.23 16.57 75.23 17.13L75.23 17.13Q75.23 17.73 75.09 17.73L75.09 17.73Q74.74 17.73 74.18 17.85Q73.62 17.97 73.16 18.20Q72.70 18.43 72.70 18.78L72.70 18.78Q72.70 19.03 72.81 19.31L72.81 19.31L75.55 25.81L78.33 19.98Q78.82 18.92 78.36 18.46L78.36 18.46Q77.63 17.73 76.04 17.73L76.04 17.73Q75.94 17.66 75.94 17.16L75.94 17.16Q75.94 16.71 76.01 16.43L76.01 16.43L77.94 16.57Q78.64 16.64 79.17 16.67Q79.70 16.71 80.09 16.71L80.09 16.71Q80.51 16.71 81.05 16.65Q81.60 16.60 82.27 16.57L82.27 16.57L84.13 16.43Q84.27 16.57 84.27 17.02L84.27 17.02Q84.27 17.73 84.13 17.73L84.13 17.73Q83.78 17.73 83.21 17.90Q82.65 18.08 82.13 18.38Q81.60 18.68 81.35 19.13L81.35 19.13L75.16 31.37Q74.64 32.39 74.11 32.39ZM92.25 32.25L92.25 32.25Q90.11 32.25 88.29 31.16Q86.48 30.07 85.41 28.24Q84.34 26.41 84.34 24.23L84.34 24.23Q84.34 21.98 85.31 20.19Q86.27 18.39 88.00 17.34Q89.72 16.29 91.97 16.29L91.97 16.29Q94.18 16.29 95.75 17.32Q97.31 18.36 98.14 19.89Q98.96 21.42 98.96 22.96L98.96 22.96Q98.96 23.77 98.63 24.02Q98.30 24.27 97.31 24.27L97.31 24.27L89.37 24.27Q89.16 24.27 89.16 24.51L89.16 24.51Q89.16 25.78 89.63 26.90Q90.11 28.03 91.04 28.73Q91.97 29.43 93.30 29.43L93.30 29.43Q94.50 29.43 95.52 29.08L95.52 29.08Q96.22 28.87 96.61 28.70Q97.00 28.52 97.33 28.29Q97.66 28.06 98.12 27.71L98.12 27.71Q98.44 27.85 98.44 28.38L98.44 28.38Q98.44 28.84 98.30 29.08L98.30 29.08Q98.09 29.64 97.19 30.38Q96.29 31.12 95.01 31.68Q93.73 32.25 92.25 32.25ZM89.40 22.33L89.40 22.33L93.87 22.33Q94.36 22.33 94.36 21.66L94.36 21.66Q94.36 20.33 93.64 19.27Q92.92 18.22 91.79 18.22L91.79 18.22Q90.77 18.22 90.19 18.94Q89.61 19.66 89.38 20.54Q89.16 21.42 89.16 21.98L89.16 21.98Q89.16 22.33 89.40 22.33ZM101.11 32.14L101.11 32.14Q100.97 32 100.97 31.40L100.97 31.40Q100.97 30.84 101.11 30.84L101.11 30.84Q101.39 30.84 101.92 30.68Q102.45 30.52 102.90 30.31Q103.36 30.10 103.39 29.96L103.39 29.96Q103.64 28.98 103.64 27.29L103.64 27.29L103.64 22.47Q103.64 20.50 103.01 19.84L103.01 19.84Q102.73 19.48 102.25 19.34Q101.78 19.20 101.43 19.15Q101.07 19.10 101.07 19.03L101.07 19.03Q101.07 17.80 101.25 17.80L101.25 17.80Q102.16 17.80 103.80 17.39Q105.43 16.99 107.26 16.60L107.26 16.60L108.07 16.43Q108.25 16.43 108.42 16.65Q108.60 16.88 108.60 17.02L108.60 17.02Q108.56 17.23 108.51 17.87Q108.46 18.50 108.42 18.57L108.42 18.57Q110.18 16.29 112.39 16.29L112.39 16.29Q113.98 16.29 115.42 17.59L115.42 17.59Q115.42 19.41 114.98 20.29Q114.54 21.17 113.38 21.17L113.38 21.17Q112.68 21.17 111.76 20.36L111.76 20.36Q110.85 19.55 110.14 19.55L110.14 19.55Q109.44 19.55 109.02 20.10Q108.60 20.64 108.40 21.49Q108.21 22.33 108.21 23.25L108.21 23.25L108.21 26.80Q108.21 29.08 108.46 29.96L108.46 29.96Q108.53 30.10 108.95 30.31Q109.37 30.52 109.86 30.68Q110.36 30.84 110.53 30.84L110.53 30.84Q110.60 30.84 110.64 31.12Q110.67 31.40 110.67 31.72Q110.67 32.04 110.60 32.14L110.60 32.14Q110.32 32.11 109.41 32.05Q108.49 32 107.49 31.93Q106.49 31.86 105.93 31.86L105.93 31.86Q105.50 31.86 104.78 31.89Q104.06 31.93 103.29 31.98Q102.52 32.04 101.92 32.09Q101.32 32.14 101.11 32.14ZM117.21 32.14L117.21 32.14Q117.07 32 117.07 31.40L117.07 31.40Q117.07 30.84 117.21 30.84L117.21 30.84Q117.49 30.84 118.00 30.68Q118.51 30.52 118.99 30.31Q119.46 30.10 119.50 29.96L119.50 29.96Q119.74 28.98 119.74 27.29L119.74 27.29L119.74 22.47Q119.74 20.50 119.11 19.84L119.11 19.84Q118.83 19.48 118.35 19.34Q117.88 19.20 117.53 19.15Q117.18 19.10 117.18 19.03L117.18 19.03Q117.18 17.80 117.35 17.80L117.35 17.80Q118.27 17.80 119.95 17.39Q121.64 16.99 123.79 16.53L123.79 16.53L123.96 16.50Q124.00 16.46 124.10 16.46L124.10 16.46L124.17 16.43Q124.35 16.43 124.54 16.65Q124.73 16.88 124.70 17.02L124.70 17.02L124.56 18.11Q124.56 18.29 124.59 18.32L124.59 18.32Q124.66 18.32 124.84 18.15L124.84 18.15Q126.77 16.32 129.73 16.32L129.73 16.32Q131.77 16.32 133.05 18.04Q134.33 19.77 134.33 23.28L134.33 23.28L134.33 26.76Q134.33 29.08 134.58 29.96L134.58 29.96Q134.65 30.10 135.11 30.31Q135.56 30.52 136.07 30.68Q136.58 30.84 136.79 30.84L136.79 30.84Q136.86 30.84 136.90 31.12Q136.93 31.40 136.93 31.72Q136.93 32.04 136.86 32.14L136.86 32.14Q136.65 32.14 136.05 32.09Q135.46 32.04 134.67 31.98Q133.88 31.93 133.17 31.89Q132.47 31.86 132.05 31.86L132.05 31.86Q131.48 31.86 130.48 31.93Q129.48 32 128.57 32.05Q127.65 32.11 127.37 32.14L127.37 32.14Q127.23 32 127.23 31.40L127.23 31.40Q127.23 30.84 127.37 30.84L127.37 30.84Q127.65 30.84 128.13 30.68Q128.60 30.52 129.04 30.31Q129.48 30.10 129.52 29.96L129.52 29.96Q129.76 28.98 129.76 27.29L129.76 27.29L129.76 24.13Q129.76 21.52 129.04 20.42Q128.32 19.31 126.74 19.31L126.74 19.31Q125.65 19.31 124.98 19.71Q124.31 20.12 124.31 20.86L124.31 20.86L124.31 26.76Q124.31 29.08 124.56 29.96L124.56 29.96Q124.63 30.10 125.05 30.31Q125.47 30.52 125.96 30.68Q126.46 30.84 126.63 30.84L126.63 30.84Q126.70 30.84 126.74 31.12Q126.77 31.40 126.77 31.72Q126.77 32.04 126.70 32.14L126.70 32.14Q126.42 32.11 125.51 32.05Q124.59 32 123.59 31.93Q122.59 31.86 122.03 31.86L122.03 31.86Q121.61 31.86 120.88 31.89Q120.16 31.93 119.39 31.98Q118.62 32.04 118.02 32.09Q117.42 32.14 117.21 32.14ZM142.84 32.25L142.84 32.25Q140.91 32.25 139.76 31.17Q138.62 30.10 138.62 28.48L138.62 28.48Q138.62 27.11 139.48 26.09Q140.34 25.07 141.64 24.48L141.64 24.48Q142.14 24.27 142.56 24.11Q142.98 23.95 143.33 23.81L143.33 23.81Q144.67 23.39 145.48 23.19Q146.29 23 146.67 22.86L146.67 22.86Q146.99 22.75 146.99 22.33L146.99 22.33L146.99 21.07Q146.99 18.18 145.23 18.18L145.23 18.18Q143.19 18.18 143.19 20.54L143.19 20.54Q143.19 21.31 142.56 21.68Q141.93 22.05 141.15 22.05L141.15 22.05Q139.54 22.05 138.94 21.00L138.94 21.00Q138.94 20.08 139.59 19.24Q140.24 18.39 141.31 17.71Q142.38 17.02 143.74 16.62Q145.09 16.21 146.46 16.21L146.46 16.21Q148.92 16.21 150.24 17.57Q151.56 18.92 151.56 22.47L151.56 22.47L151.56 28.17Q151.56 29.36 152.40 29.36L152.40 29.36Q153.04 29.36 153.60 28.91L153.60 28.91Q153.84 29.05 153.84 29.43L153.84 29.43Q153.84 30.35 153.60 30.73L153.60 30.73Q153.11 31.19 152.00 31.70Q150.89 32.21 149.91 32.21L149.91 32.21Q149.06 32.21 148.29 31.70Q147.52 31.19 147.27 30.52L147.27 30.52Q147.23 30.52 146.88 30.77Q146.53 31.02 146.36 31.16L146.36 31.16Q145.65 31.61 144.74 31.93Q143.82 32.25 142.84 32.25ZM145.05 29.71L145.05 29.71Q145.97 29.71 146.48 29.28Q146.99 28.84 146.99 28.20L146.99 28.20L146.99 24.65L145.16 25.29Q144.42 25.53 143.81 26.02Q143.19 26.52 143.19 27.32L143.19 27.32Q143.19 28.59 143.74 29.15Q144.28 29.71 145.05 29.71ZM155.57 32.14L155.57 32.14Q155.43 32 155.43 31.40L155.43 31.40Q155.43 30.84 155.57 30.84L155.57 30.84Q155.85 30.84 156.36 30.68Q156.87 30.52 157.34 30.31Q157.82 30.10 157.85 29.96L157.85 29.96Q158.10 28.98 158.10 27.29L158.10 27.29L158.10 22.47Q158.10 20.50 157.46 19.84L157.46 19.84Q157.18 19.48 156.71 19.34Q156.23 19.20 155.88 19.15Q155.53 19.10 155.53 19.03L155.53 19.03Q155.53 17.80 155.71 17.80L155.71 17.80Q156.62 17.80 158.31 17.39Q160.00 16.99 162.14 16.53L162.14 16.53L162.32 16.50Q162.35 16.46 162.46 16.46L162.46 16.46L162.53 16.43Q162.70 16.43 162.90 16.65Q163.09 16.88 163.05 17.02L163.05 17.02L162.91 18.11Q162.91 18.29 162.95 18.32L162.95 18.32Q163.02 18.32 163.20 18.15L163.20 18.15Q165.13 16.32 168.08 16.32L168.08 16.32Q170.12 16.32 171.40 18.04Q172.69 19.77 172.69 23.28L172.69 23.28L172.69 26.76Q172.69 29.08 172.93 29.96L172.93 29.96Q173.00 30.10 173.46 30.31Q173.92 30.52 174.43 30.68Q174.94 30.84 175.15 30.84L175.15 30.84Q175.22 30.84 175.25 31.12Q175.29 31.40 175.29 31.72Q175.29 32.04 175.22 32.14L175.22 32.14Q175.01 32.14 174.41 32.09Q173.81 32.04 173.02 31.98Q172.23 31.93 171.53 31.89Q170.82 31.86 170.40 31.86L170.40 31.86Q169.84 31.86 168.84 31.93Q167.84 32 166.92 32.05Q166.01 32.11 165.73 32.14L165.73 32.14Q165.59 32 165.59 31.40L165.59 31.40Q165.59 30.84 165.73 30.84L165.73 30.84Q166.01 30.84 166.48 30.68Q166.96 30.52 167.40 30.31Q167.84 30.10 167.87 29.96L167.87 29.96Q168.12 28.98 168.12 27.29L168.12 27.29L168.12 24.13Q168.12 21.52 167.40 20.42Q166.68 19.31 165.09 19.31L165.09 19.31Q164.00 19.31 163.34 19.71Q162.67 20.12 162.67 20.86L162.67 20.86L162.67 26.76Q162.67 29.08 162.91 29.96L162.91 29.96Q162.98 30.10 163.41 30.31Q163.83 30.52 164.32 30.68Q164.81 30.84 164.99 30.84L164.99 30.84Q165.06 30.84 165.09 31.12Q165.13 31.40 165.13 31.72Q165.13 32.04 165.06 32.14L165.06 32.14Q164.78 32.11 163.86 32.05Q162.95 32 161.95 31.93Q160.95 31.86 160.38 31.86L160.38 31.86Q159.96 31.86 159.24 31.89Q158.52 31.93 157.75 31.98Q156.97 32.04 156.38 32.09Q155.78 32.14 155.57 32.14ZM184.85 32.25L184.85 32.25Q182.60 32.25 180.81 31.16Q179.02 30.07 177.96 28.20Q176.91 26.34 176.91 24.05L176.91 24.05Q176.91 21.88 178.03 20.12Q179.16 18.36 181.07 17.32Q182.99 16.29 185.31 16.29L185.31 16.29Q187.10 16.29 188.61 16.90Q190.13 17.52 190.79 18.36L190.79 18.36Q190.79 21.59 188.89 21.59L188.89 21.59Q187.52 21.59 186.82 19.84L186.82 19.84Q186.50 19.03 186.03 18.62Q185.55 18.22 184.71 18.22L184.71 18.22Q181.90 18.22 181.90 23.49L181.90 23.49Q181.90 29.43 185.87 29.43L185.87 29.43Q187.07 29.43 188.09 29.08L188.09 29.08Q188.79 28.87 189.18 28.70Q189.56 28.52 189.90 28.29Q190.23 28.06 190.69 27.71L190.69 27.71Q191.00 27.85 191.00 28.38L191.00 28.38Q191.00 28.84 190.86 29.08L190.86 29.08Q190.65 29.64 189.77 30.40Q188.89 31.16 187.61 31.70Q186.33 32.25 184.85 32.25ZM200.32 32.25L200.32 32.25Q198.18 32.25 196.37 31.16Q194.55 30.07 193.48 28.24Q192.41 26.41 192.41 24.23L192.41 24.23Q192.41 21.98 193.38 20.19Q194.34 18.39 196.07 17.34Q197.79 16.29 200.04 16.29L200.04 16.29Q202.25 16.29 203.82 17.32Q205.38 18.36 206.21 19.89Q207.04 21.42 207.04 22.96L207.04 22.96Q207.04 23.77 206.70 24.02Q206.37 24.27 205.38 24.27L205.38 24.27L197.44 24.27Q197.23 24.27 197.23 24.51L197.23 24.51Q197.23 25.78 197.70 26.90Q198.18 28.03 199.11 28.73Q200.04 29.43 201.38 29.43L201.38 29.43Q202.57 29.43 203.59 29.08L203.59 29.08Q204.29 28.87 204.68 28.70Q205.07 28.52 205.40 28.29Q205.73 28.06 206.19 27.71L206.19 27.71Q206.51 27.85 206.51 28.38L206.51 28.38Q206.51 28.84 206.37 29.08L206.37 29.08Q206.16 29.64 205.26 30.38Q204.36 31.12 203.08 31.68Q201.80 32.25 200.32 32.25ZM197.47 22.33L197.47 22.33L201.94 22.33Q202.43 22.33 202.43 21.66L202.43 21.66Q202.43 20.33 201.71 19.27Q200.99 18.22 199.86 18.22L199.86 18.22Q198.84 18.22 198.26 18.94Q197.68 19.66 197.46 20.54Q197.23 21.42 197.23 21.98L197.23 21.98Q197.23 22.33 197.47 22.33Z" fill="#1a1a1a"/>
  <circle cx="220" cy="29" r="5" fill="#57886c"/>
</svg>
