<svg version="1.0" preserveAspectRatio="xMidYMid meet" height="80" viewBox="0 0 375 60" zoomAndPan="magnify" width="500" xmlns:xlink="http://www.w3.org/1999/xlink" xmlns="http://www.w3.org/2000/svg"><defs><g></g></defs><path fill-rule="nonzero" fill-opacity="1" d="M 60.199219 26.496094 L 56.617188 34.296875 L 54.910156 38.011719 L 53.710938 40.628906 C 50.847656 45.972656 45.984375 50.097656 40.132812 51.996094 L 41.242188 49.578125 L 41.230469 49.574219 L 46.832031 37.378906 L 47.964844 34.917969 L 48.25 34.296875 L 50.710938 28.929688 L 51.832031 26.496094 Z M 60.199219 26.496094" fill="#312dee"></path><path fill-rule="nonzero" fill-opacity="1" d="M 50.710938 28.929688 L 48.609375 33.507812 L 47.964844 34.917969 C 47.65625 35.773438 47.273438 36.59375 46.832031 37.378906 C 45.152344 40.339844 42.558594 42.722656 39.4375 44.128906 C 37.425781 45.042969 35.191406 45.546875 32.84375 45.546875 C 23.722656 45.546875 16.351562 37.90625 16.796875 28.6875 C 16.953125 25.46875 18.070312 22.492188 19.863281 20.035156 C 22.664062 16.207031 27.117188 13.644531 32.140625 13.429688 C 35.371094 13.292969 38.40625 14.117188 40.980469 15.636719 C 42.402344 16.472656 44.210938 16.261719 45.441406 15.164062 C 46.292969 14.40625 46.703125 13.382812 46.703125 12.363281 C 46.703125 11.082031 46.058594 9.8125 44.828125 9.085938 C 41.308594 7.015625 37.214844 5.820312 32.84375 5.820312 C 27.992188 5.820312 23.484375 7.289062 19.730469 9.796875 C 13.128906 14.207031 8.863281 21.847656 9.199219 30.433594 C 9.683594 42.6875 19.605469 52.625 31.863281 53.125 C 34.757812 53.238281 37.539062 52.835938 40.132812 51.996094 C 43.660156 50.851562 46.828125 48.898438 49.414062 46.355469 C 51.121094 44.679688 52.574219 42.75 53.710938 40.625 C 54.164062 39.78125 54.566406 38.914062 54.910156 38.011719 C 55.472656 36.570312 55.890625 35.066406 56.160156 33.507812 C 56.375 32.261719 56.492188 30.980469 56.5 29.675781 Z M 50.710938 28.929688" fill="#ffffff"></path><path fill-rule="nonzero" fill-opacity="1" d="M 60.140625 26.601562 L 56.96875 33.511719 L 34.457031 33.511719 C 32.292969 33.511719 30.453125 31.792969 30.445312 29.621094 C 30.441406 28.539062 30.878906 27.558594 31.585938 26.847656 C 32.292969 26.144531 33.269531 25.707031 34.34375 25.707031 L 59.570312 25.707031 C 60.03125 25.707031 60.335938 26.183594 60.144531 26.601562 Z M 60.140625 26.601562" fill="#ffffff"></path><path fill-rule="nonzero" fill-opacity="1" d="M 32.140625 13.433594 C 27.117188 13.648438 22.664062 16.207031 19.863281 20.039062 C 19.546875 18.242188 19.386719 16.390625 19.386719 14.5 C 19.386719 12.90625 19.503906 11.332031 19.730469 9.796875 C 23.484375 7.289062 27.996094 5.824219 32.84375 5.824219 C 37.214844 5.824219 41.3125 7.015625 44.832031 9.089844 C 46.0625 9.816406 46.703125 11.085938 46.703125 12.363281 C 46.703125 13.382812 46.292969 14.410156 45.441406 15.167969 C 44.210938 16.261719 42.402344 16.476562 40.980469 15.636719 C 38.410156 14.117188 35.371094 13.292969 32.144531 13.433594 Z M 32.140625 13.433594" fill="#ffffff"></path><path fill-rule="nonzero" fill-opacity="1" d="M 59.566406 25.707031 C 60.027344 25.707031 60.332031 26.183594 60.140625 26.601562 L 56.96875 33.511719 C 56.96875 33.511719 54.164062 39.785156 53.710938 40.628906 C 52.574219 42.75 51.121094 44.683594 49.414062 46.355469 C 45.90625 46.152344 42.550781 45.382812 39.4375 44.132812 C 42.558594 42.722656 45.152344 40.34375 46.832031 37.378906 C 47.273438 36.597656 47.652344 35.777344 47.964844 34.917969 L 48.609375 33.511719 L 34.457031 33.511719 C 32.292969 33.511719 30.453125 31.792969 30.445312 29.625 C 30.441406 28.539062 30.878906 27.558594 31.585938 26.851562 C 32.292969 26.148438 33.269531 25.707031 34.34375 25.707031 L 59.570312 25.707031 Z M 59.566406 25.707031" fill="#ffffff"></path><path fill-rule="nonzero" fill-opacity="1" d="M 61.128906 17.265625 C 61.234375 18.035156 61.109375 18.78125 60.800781 19.429688 C 60.585938 19.875 60.292969 20.277344 59.933594 20.605469 C 59.386719 21.113281 58.679688 21.464844 57.886719 21.578125 C 55.800781 21.871094 53.871094 20.421875 53.578125 18.335938 C 53.445312 17.417969 53.652344 16.53125 54.109375 15.800781 C 54.433594 15.265625 54.898438 14.816406 55.449219 14.496094 C 55.859375 14.257812 56.320312 14.09375 56.820312 14.023438 C 58.90625 13.730469 60.835938 15.183594 61.128906 17.265625 Z M 61.128906 17.265625" fill="#9755ee"></path><path fill-rule="nonzero" fill-opacity="1" d="M 61.128906 17.265625 C 61.234375 18.035156 61.109375 18.78125 60.800781 19.429688 C 58.550781 18.40625 56.660156 16.683594 55.449219 14.496094 C 55.859375 14.253906 56.320312 14.09375 56.816406 14.023438 C 58.90625 13.726562 60.832031 15.179688 61.128906 17.265625 Z M 61.128906 17.265625" fill="#9e68f2"></path><path fill-rule="nonzero" fill-opacity="1" d="M 90.378906 53.191406 L 83.296875 53.191406 C 82.945312 53.191406 82.625 52.984375 82.480469 52.664062 L 74.039062 34.296875 L 73.746094 33.652344 L 70.460938 26.496094 L 70.226562 25.984375 L 70.164062 25.847656 L 69.207031 23.769531 L 68.589844 22.429688 C 68.554688 22.34375 68.519531 22.257812 68.488281 22.175781 L 63.441406 11.183594 C 63.195312 10.660156 63.082031 10.113281 63.082031 9.574219 C 63.082031 8.144531 63.890625 6.78125 65.269531 6.136719 C 67.167969 5.246094 69.429688 6.0625 70.316406 7.964844 L 76.636719 21.722656 L 78.261719 25.265625 L 78.53125 25.851562 L 78.828125 26.496094 L 79.996094 29.039062 L 89.425781 49.574219 L 89.417969 49.578125 L 90.789062 52.558594 C 90.925781 52.855469 90.707031 53.191406 90.378906 53.191406 Z M 90.378906 53.191406" fill="#9755ee"></path><path fill-rule="nonzero" fill-opacity="1" d="M 80 29.039062 L 80 33.652344 L 63.113281 33.652344 C 62.726562 33.652344 62.464844 33.246094 62.628906 32.894531 L 65.71875 26.160156 C 65.804688 25.972656 65.996094 25.851562 66.207031 25.851562 L 78.53125 25.851562 L 78.828125 26.496094 Z M 80 29.039062" fill="#9755ee"></path><path fill-rule="nonzero" fill-opacity="1" d="M 76.640625 21.722656 C 74.765625 23.03125 72.484375 23.800781 70.027344 23.800781 C 69.75 23.800781 69.480469 23.789062 69.207031 23.773438 L 68.59375 22.429688 C 68.554688 22.347656 68.519531 22.261719 68.488281 22.175781 L 63.441406 11.183594 C 63.199219 10.664062 63.082031 10.113281 63.082031 9.578125 C 63.082031 8.148438 63.894531 6.78125 65.269531 6.136719 C 67.171875 5.246094 69.433594 6.066406 70.320312 7.964844 L 76.640625 21.726562 Z M 76.640625 21.722656" fill="#9e68f2"></path><g fill-opacity="1" fill="#ffffff"><g transform="translate(100.012971, 49.974976)"><g></g></g></g><g fill-opacity="1" fill="#ffffff"><g transform="translate(105.145783, 49.974976)"><g><path d="M 1.78125 0 L 1.78125 -14.09375 L 4.765625 -14.09375 L 4.765625 0 Z M 1.78125 0"></path></g></g></g><g fill-opacity="1" fill="#ffffff"><g transform="translate(111.68282, 49.974976)"><g><path d="M 14.28125 0 L 10.484375 0 L 4.34375 -10.671875 L 4.265625 -10.671875 C 4.390625 -8.785156 4.453125 -7.441406 4.453125 -6.640625 L 4.453125 0 L 1.78125 0 L 1.78125 -14.09375 L 5.546875 -14.09375 L 11.671875 -3.546875 L 11.734375 -3.546875 C 11.640625 -5.367188 11.59375 -6.660156 11.59375 -7.421875 L 11.59375 -14.09375 L 14.28125 -14.09375 Z M 14.28125 0"></path></g></g></g><g fill-opacity="1" fill="#ffffff"><g transform="translate(127.736168, 49.974976)"><g><path d="M 7.21875 0 L 4.21875 0 L 4.21875 -11.609375 L 0.390625 -11.609375 L 0.390625 -14.09375 L 11.046875 -14.09375 L 11.046875 -11.609375 L 7.21875 -11.609375 Z M 7.21875 0"></path></g></g></g><g fill-opacity="1" fill="#ffffff"><g transform="translate(139.171161, 49.974976)"><g><path d="M 9.890625 0 L 1.78125 0 L 1.78125 -14.09375 L 9.890625 -14.09375 L 9.890625 -11.65625 L 4.765625 -11.65625 L 4.765625 -8.546875 L 9.53125 -8.546875 L 9.53125 -6.109375 L 4.765625 -6.109375 L 4.765625 -2.46875 L 9.890625 -2.46875 Z M 9.890625 0"></path></g></g></g><g fill-opacity="1" fill="#ffffff"><g transform="translate(150.230136, 49.974976)"><g><path d="M 1.78125 0 L 1.78125 -14.09375 L 4.765625 -14.09375 L 4.765625 -2.46875 L 10.484375 -2.46875 L 10.484375 0 Z M 1.78125 0"></path></g></g></g><g fill-opacity="1" fill="#ffffff"><g transform="translate(161.385527, 49.974976)"><g><path d="M 1.78125 0 L 1.78125 -14.09375 L 4.765625 -14.09375 L 4.765625 -2.46875 L 10.484375 -2.46875 L 10.484375 0 Z M 1.78125 0"></path></g></g></g><g fill-opacity="1" fill="#ffffff"><g transform="translate(172.540919, 49.974976)"><g><path d="M 1.78125 0 L 1.78125 -14.09375 L 4.765625 -14.09375 L 4.765625 0 Z M 1.78125 0"></path></g></g></g><g fill-opacity="1" fill="#ffffff"><g transform="translate(179.077955, 49.974976)"><g><path d="M 7.125 -7.921875 L 12.71875 -7.921875 L 12.71875 -0.609375 C 11.8125 -0.304688 10.957031 -0.0976562 10.15625 0.015625 C 9.351562 0.128906 8.535156 0.1875 7.703125 0.1875 C 5.578125 0.1875 3.953125 -0.4375 2.828125 -1.6875 C 1.703125 -2.9375 1.140625 -4.726562 1.140625 -7.0625 C 1.140625 -9.34375 1.789062 -11.117188 3.09375 -12.390625 C 4.394531 -13.660156 6.203125 -14.296875 8.515625 -14.296875 C 9.960938 -14.296875 11.359375 -14.007812 12.703125 -13.4375 L 11.703125 -11.046875 C 10.679688 -11.554688 9.613281 -11.8125 8.5 -11.8125 C 7.207031 -11.8125 6.171875 -11.375 5.390625 -10.5 C 4.609375 -9.632812 4.21875 -8.472656 4.21875 -7.015625 C 4.21875 -5.484375 4.53125 -4.3125 5.15625 -3.5 C 5.789062 -2.695312 6.703125 -2.296875 7.890625 -2.296875 C 8.515625 -2.296875 9.148438 -2.359375 9.796875 -2.484375 L 9.796875 -5.421875 L 7.125 -5.421875 Z M 7.125 -7.921875"></path></g></g></g><g fill-opacity="1" fill="#ffffff"><g transform="translate(193.376523, 49.974976)"><g><path d="M 9.890625 0 L 1.78125 0 L 1.78125 -14.09375 L 9.890625 -14.09375 L 9.890625 -11.65625 L 4.765625 -11.65625 L 4.765625 -8.546875 L 9.53125 -8.546875 L 9.53125 -6.109375 L 4.765625 -6.109375 L 4.765625 -2.46875 L 9.890625 -2.46875 Z M 9.890625 0"></path></g></g></g><g fill-opacity="1" fill="#ffffff"><g transform="translate(204.435498, 49.974976)"><g><path d="M 14.28125 0 L 10.484375 0 L 4.34375 -10.671875 L 4.265625 -10.671875 C 4.390625 -8.785156 4.453125 -7.441406 4.453125 -6.640625 L 4.453125 0 L 1.78125 0 L 1.78125 -14.09375 L 5.546875 -14.09375 L 11.671875 -3.546875 L 11.734375 -3.546875 C 11.640625 -5.367188 11.59375 -6.660156 11.59375 -7.421875 L 11.59375 -14.09375 L 14.28125 -14.09375 Z M 14.28125 0"></path></g></g></g><g fill-opacity="1" fill="#ffffff"><g transform="translate(220.488846, 49.974976)"><g><path d="M 7.765625 -11.8125 C 6.640625 -11.8125 5.765625 -11.390625 5.140625 -10.546875 C 4.523438 -9.703125 4.21875 -8.523438 4.21875 -7.015625 C 4.21875 -3.867188 5.398438 -2.296875 7.765625 -2.296875 C 8.753906 -2.296875 9.953125 -2.539062 11.359375 -3.03125 L 11.359375 -0.53125 C 10.203125 -0.0507812 8.910156 0.1875 7.484375 0.1875 C 5.429688 0.1875 3.859375 -0.429688 2.765625 -1.671875 C 1.679688 -2.921875 1.140625 -4.707031 1.140625 -7.03125 C 1.140625 -8.5 1.40625 -9.78125 1.9375 -10.875 C 2.476562 -11.976562 3.25 -12.820312 4.25 -13.40625 C 5.25 -14 6.421875 -14.296875 7.765625 -14.296875 C 9.128906 -14.296875 10.503906 -13.96875 11.890625 -13.3125 L 10.921875 -10.875 C 10.398438 -11.125 9.867188 -11.34375 9.328125 -11.53125 C 8.796875 -11.71875 8.273438 -11.8125 7.765625 -11.8125 Z M 7.765625 -11.8125"></path></g></g></g><g fill-opacity="1" fill="#ffffff"><g transform="translate(233.071201, 49.974976)"><g><path d="M 9.890625 0 L 1.78125 0 L 1.78125 -14.09375 L 9.890625 -14.09375 L 9.890625 -11.65625 L 4.765625 -11.65625 L 4.765625 -8.546875 L 9.53125 -8.546875 L 9.53125 -6.109375 L 4.765625 -6.109375 L 4.765625 -2.46875 L 9.890625 -2.46875 Z M 9.890625 0"></path></g></g></g><g fill-opacity="1" fill="#ffffff"><g transform="translate(244.130176, 49.974976)"><g></g></g></g><g fill-opacity="1" fill="#ffffff"><g transform="translate(249.259532, 49.974976)"><g><path d="M 10.40625 0 L 9.390625 -3.359375 L 4.25 -3.359375 L 3.21875 0 L 0 0 L 4.96875 -14.15625 L 8.625 -14.15625 L 13.625 0 Z M 8.671875 -5.859375 C 7.722656 -8.898438 7.1875 -10.617188 7.0625 -11.015625 C 6.945312 -11.421875 6.863281 -11.738281 6.8125 -11.96875 C 6.601562 -11.144531 6 -9.109375 5 -5.859375 Z M 8.671875 -5.859375"></path></g></g></g><g fill-opacity="1" fill="#ffffff"><g transform="translate(262.883184, 49.974976)"><g><path d="M 4.765625 -7.84375 L 5.734375 -7.84375 C 6.671875 -7.84375 7.363281 -8 7.8125 -8.3125 C 8.269531 -8.625 8.5 -9.117188 8.5 -9.796875 C 8.5 -10.460938 8.265625 -10.9375 7.796875 -11.21875 C 7.335938 -11.507812 6.628906 -11.65625 5.671875 -11.65625 L 4.765625 -11.65625 Z M 4.765625 -5.40625 L 4.765625 0 L 1.78125 0 L 1.78125 -14.09375 L 5.875 -14.09375 C 7.789062 -14.09375 9.207031 -13.742188 10.125 -13.046875 C 11.050781 -12.347656 11.515625 -11.289062 11.515625 -9.875 C 11.515625 -9.039062 11.285156 -8.300781 10.828125 -7.65625 C 10.367188 -7.007812 9.722656 -6.503906 8.890625 -6.140625 C 11.015625 -2.972656 12.394531 -0.925781 13.03125 0 L 9.71875 0 L 6.359375 -5.40625 Z M 4.765625 -5.40625"></path></g></g></g><g fill-opacity="1" fill="#ffffff"><g transform="translate(275.918691, 49.974976)"><g><path d="M 7.21875 0 L 4.21875 0 L 4.21875 -11.609375 L 0.390625 -11.609375 L 0.390625 -14.09375 L 11.046875 -14.09375 L 11.046875 -11.609375 L 7.21875 -11.609375 Z M 7.21875 0"></path></g></g></g><g fill-opacity="1" fill="#ffffff"><g transform="translate(287.353684, 49.974976)"><g><path d="M 1.78125 0 L 1.78125 -14.09375 L 4.765625 -14.09375 L 4.765625 0 Z M 1.78125 0"></path></g></g></g><g fill-opacity="1" fill="#ffffff"><g transform="translate(293.890721, 49.974976)"><g><path d="M 4.71875 0 L 1.78125 0 L 1.78125 -14.09375 L 9.859375 -14.09375 L 9.859375 -11.65625 L 4.71875 -11.65625 L 4.71875 -8.015625 L 9.5 -8.015625 L 9.5 -5.578125 L 4.71875 -5.578125 Z M 4.71875 0"></path></g></g></g><g fill-opacity="1" fill="#ffffff"><g transform="translate(304.727943, 49.974976)"><g><path d="M 1.78125 0 L 1.78125 -14.09375 L 4.765625 -14.09375 L 4.765625 0 Z M 1.78125 0"></path></g></g></g><g fill-opacity="1" fill="#ffffff"><g transform="translate(311.264991, 49.974976)"><g><path d="M 7.765625 -11.8125 C 6.640625 -11.8125 5.765625 -11.390625 5.140625 -10.546875 C 4.523438 -9.703125 4.21875 -8.523438 4.21875 -7.015625 C 4.21875 -3.867188 5.398438 -2.296875 7.765625 -2.296875 C 8.753906 -2.296875 9.953125 -2.539062 11.359375 -3.03125 L 11.359375 -0.53125 C 10.203125 -0.0507812 8.910156 0.1875 7.484375 0.1875 C 5.429688 0.1875 3.859375 -0.429688 2.765625 -1.671875 C 1.679688 -2.921875 1.140625 -4.707031 1.140625 -7.03125 C 1.140625 -8.5 1.40625 -9.78125 1.9375 -10.875 C 2.476562 -11.976562 3.25 -12.820312 4.25 -13.40625 C 5.25 -14 6.421875 -14.296875 7.765625 -14.296875 C 9.128906 -14.296875 10.503906 -13.96875 11.890625 -13.3125 L 10.921875 -10.875 C 10.398438 -11.125 9.867188 -11.34375 9.328125 -11.53125 C 8.796875 -11.71875 8.273438 -11.8125 7.765625 -11.8125 Z M 7.765625 -11.8125"></path></g></g></g><g fill-opacity="1" fill="#ffffff"><g transform="translate(323.847358, 49.974976)"><g><path d="M 1.78125 0 L 1.78125 -14.09375 L 4.765625 -14.09375 L 4.765625 0 Z M 1.78125 0"></path></g></g></g><g fill-opacity="1" fill="#ffffff"><g transform="translate(330.384406, 49.974976)"><g><path d="M 9.890625 0 L 1.78125 0 L 1.78125 -14.09375 L 9.890625 -14.09375 L 9.890625 -11.65625 L 4.765625 -11.65625 L 4.765625 -8.546875 L 9.53125 -8.546875 L 9.53125 -6.109375 L 4.765625 -6.109375 L 4.765625 -2.46875 L 9.890625 -2.46875 Z M 9.890625 0"></path></g></g></g><g fill-opacity="1" fill="#ffffff"><g transform="translate(341.443381, 49.974976)"><g><path d="M 1.78125 0 L 1.78125 -14.09375 L 4.765625 -14.09375 L 4.765625 -2.46875 L 10.484375 -2.46875 L 10.484375 0 Z M 1.78125 0"></path></g></g></g><g fill-opacity="1" fill="#ffffff"><g transform="translate(352.598761, 49.974976)"><g><path d="M 1.78125 0 L 1.78125 -14.09375 L 4.765625 -14.09375 L 4.765625 -2.46875 L 10.484375 -2.46875 L 10.484375 0 Z M 1.78125 0"></path></g></g></g><g fill-opacity="1" fill="#ffffff"><g transform="translate(363.75414, 49.974976)"><g><path d="M 9.890625 0 L 1.78125 0 L 1.78125 -14.09375 L 9.890625 -14.09375 L 9.890625 -11.65625 L 4.765625 -11.65625 L 4.765625 -8.546875 L 9.53125 -8.546875 L 9.53125 -6.109375 L 4.765625 -6.109375 L 4.765625 -2.46875 L 9.890625 -2.46875 Z M 9.890625 0"></path></g></g></g><g fill-opacity="1" fill="#ffffff"><g transform="translate(102.51951, 23.625023)"><g><path d="M 7.578125 -12.1875 C 6.097656 -12.1875 4.929688 -11.695312 4.078125 -10.71875 C 3.234375 -9.738281 2.8125 -8.394531 2.8125 -6.6875 C 2.8125 -4.9375 3.222656 -3.582031 4.046875 -2.625 C 4.867188 -1.675781 6.035156 -1.203125 7.546875 -1.203125 C 8.484375 -1.203125 9.550781 -1.367188 10.75 -1.703125 L 10.75 -0.34375 C 9.820312 0.0078125 8.675781 0.1875 7.3125 0.1875 C 5.34375 0.1875 3.820312 -0.410156 2.75 -1.609375 C 1.675781 -2.804688 1.140625 -4.503906 1.140625 -6.703125 C 1.140625 -8.085938 1.394531 -9.296875 1.90625 -10.328125 C 2.425781 -11.367188 3.171875 -12.171875 4.140625 -12.734375 C 5.117188 -13.296875 6.269531 -13.578125 7.59375 -13.578125 C 9 -13.578125 10.222656 -13.320312 11.265625 -12.8125 L 10.609375 -11.46875 C 9.597656 -11.945312 8.585938 -12.1875 7.578125 -12.1875 Z M 7.578125 -12.1875"></path></g></g></g><g fill-opacity="1" fill="#ffffff"><g transform="translate(114.34073, 23.625023)"><g><path d="M 9.296875 0 L 1.84375 0 L 1.84375 -13.390625 L 9.296875 -13.390625 L 9.296875 -12 L 3.390625 -12 L 3.390625 -7.6875 L 8.9375 -7.6875 L 8.9375 -6.3125 L 3.390625 -6.3125 L 3.390625 -1.390625 L 9.296875 -1.390625 Z M 9.296875 0"></path></g></g></g><g fill-opacity="1" fill="#ffffff"><g transform="translate(124.762075, 23.625023)"><g><path d="M 3.390625 -5.5625 L 3.390625 0 L 1.84375 0 L 1.84375 -13.390625 L 5.515625 -13.390625 C 7.148438 -13.390625 8.359375 -13.070312 9.140625 -12.4375 C 9.929688 -11.8125 10.328125 -10.867188 10.328125 -9.609375 C 10.328125 -7.835938 9.429688 -6.640625 7.640625 -6.015625 L 11.265625 0 L 9.4375 0 L 6.1875 -5.5625 Z M 3.390625 -6.90625 L 5.53125 -6.90625 C 6.625 -6.90625 7.425781 -7.125 7.9375 -7.5625 C 8.457031 -8 8.71875 -8.648438 8.71875 -9.515625 C 8.71875 -10.398438 8.457031 -11.035156 7.9375 -11.421875 C 7.414062 -11.816406 6.578125 -12.015625 5.421875 -12.015625 L 3.390625 -12.015625 Z M 3.390625 -6.90625"></path></g></g></g><g fill-opacity="1" fill="#ffffff"><g transform="translate(136.345406, 23.625023)"><g><path d="M 7.578125 -12.1875 C 6.097656 -12.1875 4.929688 -11.695312 4.078125 -10.71875 C 3.234375 -9.738281 2.8125 -8.394531 2.8125 -6.6875 C 2.8125 -4.9375 3.222656 -3.582031 4.046875 -2.625 C 4.867188 -1.675781 6.035156 -1.203125 7.546875 -1.203125 C 8.484375 -1.203125 9.550781 -1.367188 10.75 -1.703125 L 10.75 -0.34375 C 9.820312 0.0078125 8.675781 0.1875 7.3125 0.1875 C 5.34375 0.1875 3.820312 -0.410156 2.75 -1.609375 C 1.675781 -2.804688 1.140625 -4.503906 1.140625 -6.703125 C 1.140625 -8.085938 1.394531 -9.296875 1.90625 -10.328125 C 2.425781 -11.367188 3.171875 -12.171875 4.140625 -12.734375 C 5.117188 -13.296875 6.269531 -13.578125 7.59375 -13.578125 C 9 -13.578125 10.222656 -13.320312 11.265625 -12.8125 L 10.609375 -11.46875 C 9.597656 -11.945312 8.585938 -12.1875 7.578125 -12.1875 Z M 7.578125 -12.1875"></path></g></g></g><g fill-opacity="1" fill="#ffffff"><g transform="translate(148.166626, 23.625023)"><g><path d="M 1.84375 0 L 1.84375 -13.390625 L 3.390625 -13.390625 L 3.390625 -1.40625 L 9.296875 -1.40625 L 9.296875 0 Z M 1.84375 0"></path></g></g></g><g fill-opacity="1" fill="#ffffff"><g transform="translate(157.892604, 23.625023)"><g><path d="M 9.296875 0 L 1.84375 0 L 1.84375 -13.390625 L 9.296875 -13.390625 L 9.296875 -12 L 3.390625 -12 L 3.390625 -7.6875 L 8.9375 -7.6875 L 8.9375 -6.3125 L 3.390625 -6.3125 L 3.390625 -1.390625 L 9.296875 -1.390625 Z M 9.296875 0"></path></g></g></g><g fill-opacity="1" fill="#ffffff"><g transform="translate(168.313949, 23.625023)"><g></g></g></g><g fill-opacity="1" fill="#ffffff"><g transform="translate(173.18151, 23.625023)"><g><path d="M 12.53125 -6.828125 C 12.53125 -4.609375 11.925781 -2.914062 10.71875 -1.75 C 9.519531 -0.582031 7.796875 0 5.546875 0 L 1.84375 0 L 1.84375 -13.390625 L 5.9375 -13.390625 C 8.019531 -13.390625 9.640625 -12.8125 10.796875 -11.65625 C 11.953125 -10.5 12.53125 -8.890625 12.53125 -6.828125 Z M 10.875 -6.765625 C 10.875 -8.515625 10.4375 -9.832031 9.5625 -10.71875 C 8.6875 -11.601562 7.382812 -12.046875 5.65625 -12.046875 L 3.390625 -12.046875 L 3.390625 -1.34375 L 5.296875 -1.34375 C 7.148438 -1.34375 8.539062 -1.796875 9.46875 -2.703125 C 10.40625 -3.617188 10.875 -4.972656 10.875 -6.765625 Z M 10.875 -6.765625"></path></g></g></g><g fill-opacity="1" fill="#ffffff"><g transform="translate(186.841796, 23.625023)"><g><path d="M 9.296875 0 L 1.84375 0 L 1.84375 -13.390625 L 9.296875 -13.390625 L 9.296875 -12 L 3.390625 -12 L 3.390625 -7.6875 L 8.9375 -7.6875 L 8.9375 -6.3125 L 3.390625 -6.3125 L 3.390625 -1.390625 L 9.296875 -1.390625 Z M 9.296875 0"></path></g></g></g><g fill-opacity="1" fill="#ffffff"><g transform="translate(197.26314, 23.625023)"><g></g></g></g><g fill-opacity="1" fill="#ffffff"><g transform="translate(202.130701, 23.625023)"><g><path d="M 7.734375 -7.015625 L 12.28125 -7.015625 L 12.28125 -0.5 C 11.570312 -0.28125 10.847656 -0.113281 10.109375 0 C 9.378906 0.125 8.535156 0.1875 7.578125 0.1875 C 5.546875 0.1875 3.960938 -0.414062 2.828125 -1.625 C 1.703125 -2.832031 1.140625 -4.519531 1.140625 -6.6875 C 1.140625 -8.082031 1.414062 -9.300781 1.96875 -10.34375 C 2.53125 -11.394531 3.335938 -12.195312 4.390625 -12.75 C 5.441406 -13.300781 6.671875 -13.578125 8.078125 -13.578125 C 9.503906 -13.578125 10.835938 -13.316406 12.078125 -12.796875 L 11.46875 -11.421875 C 10.257812 -11.929688 9.097656 -12.1875 7.984375 -12.1875 C 6.347656 -12.1875 5.070312 -11.703125 4.15625 -10.734375 C 3.25 -9.765625 2.796875 -8.414062 2.796875 -6.6875 C 2.796875 -4.882812 3.234375 -3.515625 4.109375 -2.578125 C 4.992188 -1.648438 6.289062 -1.1875 8 -1.1875 C 8.925781 -1.1875 9.832031 -1.289062 10.71875 -1.5 L 10.71875 -5.625 L 7.734375 -5.625 Z M 7.734375 -7.015625"></path></g></g></g><g fill-opacity="1" fill="#ffffff"><g transform="translate(215.772687, 23.625023)"><g><path d="M 13.453125 -6.703125 C 13.453125 -4.566406 12.910156 -2.882812 11.828125 -1.65625 C 10.742188 -0.425781 9.238281 0.1875 7.3125 0.1875 C 5.34375 0.1875 3.820312 -0.414062 2.75 -1.625 C 1.675781 -2.832031 1.140625 -4.535156 1.140625 -6.734375 C 1.140625 -8.910156 1.675781 -10.597656 2.75 -11.796875 C 3.820312 -12.992188 5.347656 -13.59375 7.328125 -13.59375 C 9.253906 -13.59375 10.753906 -12.984375 11.828125 -11.765625 C 12.910156 -10.546875 13.453125 -8.859375 13.453125 -6.703125 Z M 2.796875 -6.703125 C 2.796875 -4.890625 3.179688 -3.515625 3.953125 -2.578125 C 4.722656 -1.648438 5.84375 -1.1875 7.3125 -1.1875 C 8.800781 -1.1875 9.921875 -1.648438 10.671875 -2.578125 C 11.429688 -3.515625 11.8125 -4.890625 11.8125 -6.703125 C 11.8125 -8.503906 11.429688 -9.867188 10.671875 -10.796875 C 9.921875 -11.734375 8.804688 -12.203125 7.328125 -12.203125 C 5.847656 -12.203125 4.722656 -11.734375 3.953125 -10.796875 C 3.179688 -9.859375 2.796875 -8.492188 2.796875 -6.703125 Z M 2.796875 -6.703125"></path></g></g></g><g fill-opacity="1" fill="#ffffff"><g transform="translate(230.366227, 23.625023)"><g><path d="M 11.953125 -13.390625 L 11.953125 -4.71875 C 11.953125 -3.195312 11.488281 -2 10.5625 -1.125 C 9.644531 -0.25 8.378906 0.1875 6.765625 0.1875 C 5.148438 0.1875 3.898438 -0.25 3.015625 -1.125 C 2.140625 -2.007812 1.703125 -3.222656 1.703125 -4.765625 L 1.703125 -13.390625 L 3.265625 -13.390625 L 3.265625 -4.65625 C 3.265625 -3.53125 3.566406 -2.671875 4.171875 -2.078125 C 4.785156 -1.484375 5.679688 -1.1875 6.859375 -1.1875 C 7.992188 -1.1875 8.863281 -1.484375 9.46875 -2.078125 C 10.082031 -2.679688 10.390625 -3.546875 10.390625 -4.671875 L 10.390625 -13.390625 Z M 11.953125 -13.390625"></path></g></g></g><g fill-opacity="1" fill="#ffffff"><g transform="translate(244.008214, 23.625023)"><g><path d="M 9.484375 -13.390625 L 11.15625 -13.390625 L 6.328125 0 L 4.796875 0 L 0 -13.390625 L 1.640625 -13.390625 L 4.71875 -4.71875 C 5.070312 -3.726562 5.351562 -2.765625 5.5625 -1.828125 C 5.78125 -2.816406 6.066406 -3.800781 6.421875 -4.78125 Z M 9.484375 -13.390625"></path></g></g></g><g fill-opacity="1" fill="#ffffff"><g transform="translate(255.161522, 23.625023)"><g><path d="M 9.296875 0 L 1.84375 0 L 1.84375 -13.390625 L 9.296875 -13.390625 L 9.296875 -12 L 3.390625 -12 L 3.390625 -7.6875 L 8.9375 -7.6875 L 8.9375 -6.3125 L 3.390625 -6.3125 L 3.390625 -1.390625 L 9.296875 -1.390625 Z M 9.296875 0"></path></g></g></g><g fill-opacity="1" fill="#ffffff"><g transform="translate(265.582866, 23.625023)"><g><path d="M 3.390625 -5.5625 L 3.390625 0 L 1.84375 0 L 1.84375 -13.390625 L 5.515625 -13.390625 C 7.148438 -13.390625 8.359375 -13.070312 9.140625 -12.4375 C 9.929688 -11.8125 10.328125 -10.867188 10.328125 -9.609375 C 10.328125 -7.835938 9.429688 -6.640625 7.640625 -6.015625 L 11.265625 0 L 9.4375 0 L 6.1875 -5.5625 Z M 3.390625 -6.90625 L 5.53125 -6.90625 C 6.625 -6.90625 7.425781 -7.125 7.9375 -7.5625 C 8.457031 -8 8.71875 -8.648438 8.71875 -9.515625 C 8.71875 -10.398438 8.457031 -11.035156 7.9375 -11.421875 C 7.414062 -11.816406 6.578125 -12.015625 5.421875 -12.015625 L 3.390625 -12.015625 Z M 3.390625 -6.90625"></path></g></g></g><g fill-opacity="1" fill="#ffffff"><g transform="translate(277.166198, 23.625023)"><g><path d="M 12.296875 0 L 10.515625 0 L 3.203125 -11.234375 L 3.125 -11.234375 C 3.226562 -9.910156 3.28125 -8.703125 3.28125 -7.609375 L 3.28125 0 L 1.84375 0 L 1.84375 -13.390625 L 3.59375 -13.390625 L 10.890625 -2.203125 L 10.96875 -2.203125 C 10.957031 -2.359375 10.929688 -2.882812 10.890625 -3.78125 C 10.847656 -4.675781 10.832031 -5.316406 10.84375 -5.703125 L 10.84375 -13.390625 L 12.296875 -13.390625 Z M 12.296875 0"></path></g></g></g><g fill-opacity="1" fill="#ffffff"><g transform="translate(291.293104, 23.625023)"><g><path d="M 10.25 0 L 8.59375 -4.25 L 3.21875 -4.25 L 1.578125 0 L 0 0 L 5.296875 -13.4375 L 6.59375 -13.4375 L 11.859375 0 Z M 8.109375 -5.65625 L 6.546875 -9.8125 C 6.347656 -10.332031 6.140625 -10.972656 5.921875 -11.734375 C 5.785156 -11.148438 5.59375 -10.507812 5.34375 -9.8125 L 3.765625 -5.65625 Z M 8.109375 -5.65625"></path></g></g></g><g fill-opacity="1" fill="#ffffff"><g transform="translate(303.150911, 23.625023)"><g><path d="M 12.296875 0 L 10.515625 0 L 3.203125 -11.234375 L 3.125 -11.234375 C 3.226562 -9.910156 3.28125 -8.703125 3.28125 -7.609375 L 3.28125 0 L 1.84375 0 L 1.84375 -13.390625 L 3.59375 -13.390625 L 10.890625 -2.203125 L 10.96875 -2.203125 C 10.957031 -2.359375 10.929688 -2.882812 10.890625 -3.78125 C 10.847656 -4.675781 10.832031 -5.316406 10.84375 -5.703125 L 10.84375 -13.390625 L 12.296875 -13.390625 Z M 12.296875 0"></path></g></g></g><g fill-opacity="1" fill="#ffffff"><g transform="translate(317.277817, 23.625023)"><g><path d="M 7.578125 -12.1875 C 6.097656 -12.1875 4.929688 -11.695312 4.078125 -10.71875 C 3.234375 -9.738281 2.8125 -8.394531 2.8125 -6.6875 C 2.8125 -4.9375 3.222656 -3.582031 4.046875 -2.625 C 4.867188 -1.675781 6.035156 -1.203125 7.546875 -1.203125 C 8.484375 -1.203125 9.550781 -1.367188 10.75 -1.703125 L 10.75 -0.34375 C 9.820312 0.0078125 8.675781 0.1875 7.3125 0.1875 C 5.34375 0.1875 3.820312 -0.410156 2.75 -1.609375 C 1.675781 -2.804688 1.140625 -4.503906 1.140625 -6.703125 C 1.140625 -8.085938 1.394531 -9.296875 1.90625 -10.328125 C 2.425781 -11.367188 3.171875 -12.171875 4.140625 -12.734375 C 5.117188 -13.296875 6.269531 -13.578125 7.59375 -13.578125 C 9 -13.578125 10.222656 -13.320312 11.265625 -12.8125 L 10.609375 -11.46875 C 9.597656 -11.945312 8.585938 -12.1875 7.578125 -12.1875 Z M 7.578125 -12.1875"></path></g></g></g><g fill-opacity="1" fill="#ffffff"><g transform="translate(329.099037, 23.625023)"><g><path d="M 9.296875 0 L 1.84375 0 L 1.84375 -13.390625 L 9.296875 -13.390625 L 9.296875 -12 L 3.390625 -12 L 3.390625 -7.6875 L 8.9375 -7.6875 L 8.9375 -6.3125 L 3.390625 -6.3125 L 3.390625 -1.390625 L 9.296875 -1.390625 Z M 9.296875 0"></path></g></g></g><g fill-opacity="1" fill="#ffffff"><g transform="translate(339.52037, 23.625023)"><g></g></g></g><g fill-opacity="1" fill="#ffffff"><g transform="translate(344.387931, 23.625023)"><g><path d="M 9.296875 0 L 1.84375 0 L 1.84375 -13.390625 L 9.296875 -13.390625 L 9.296875 -12 L 3.390625 -12 L 3.390625 -7.6875 L 8.9375 -7.6875 L 8.9375 -6.3125 L 3.390625 -6.3125 L 3.390625 -1.390625 L 9.296875 -1.390625 Z M 9.296875 0"></path></g></g></g><g fill-opacity="1" fill="#ffffff"><g transform="translate(354.809264, 23.625023)"><g><path d="M 12.296875 0 L 10.515625 0 L 3.203125 -11.234375 L 3.125 -11.234375 C 3.226562 -9.910156 3.28125 -8.703125 3.28125 -7.609375 L 3.28125 0 L 1.84375 0 L 1.84375 -13.390625 L 3.59375 -13.390625 L 10.890625 -2.203125 L 10.96875 -2.203125 C 10.957031 -2.359375 10.929688 -2.882812 10.890625 -3.78125 C 10.847656 -4.675781 10.832031 -5.316406 10.84375 -5.703125 L 10.84375 -13.390625 L 12.296875 -13.390625 Z M 12.296875 0"></path></g></g></g></svg>
