<?xml version="1.0" encoding="utf-8"?>
<!-- Generator: Adobe Illustrator 30.2.1, SVG Export Plug-In . SVG Version: 9.03 Build 0)  -->
<svg version="1.0" id="Calque_1" xmlns="http://www.w3.org/2000/svg" xmlns:xlink="http://www.w3.org/1999/xlink" x="0px" y="0px"
	 viewBox="0 0 500 80" style="enable-background:new 0 0 500 80;" xml:space="preserve">
<style type="text/css">
	.st0{clip-path:url(#SVGID_00000166643304289638477460000001143571006773173425_);}
	.st1{clip-path:url(#SVGID_00000101074535545753140180000015431999919980142014_);}
	.st2{clip-path:url(#SVGID_00000041278419416511826090000016315773515708372396_);}
	.st3{clip-path:url(#SVGID_00000029032981638422876910000004548345413122909602_);}
	.st4{clip-path:url(#SVGID_00000040538714086435994770000010958517258811741086_);}
	.st5{clip-path:url(#SVGID_00000003798364590723131330000016486735884375595710_);}
	.st6{fill:#57886C;}
</style>
<g transform="matrix(1, 0, 0, 1, 0, -0.000000000000001479)" fill="#ffffff">
	<g>
		<defs>
			<rect id="SVGID_1_" width="474.65" height="80"/>
		</defs>
		<clipPath id="SVGID_00000147900313755824257420000009374219534099464883_">
			<use xlink:href="#SVGID_1_"  style="overflow:visible;"/>
		</clipPath>
		<g style="clip-path:url(#SVGID_00000147900313755824257420000009374219534099464883_);">
			<g>
				<g transform="translate(-0.0629322, 48.721178)">
					<g>
						<path d="M31.3,17.95c-5.06,0-9.64-1.04-13.75-3.13c-4.1-2.08-7.34-5.26-9.73-9.52C5.44,1.04,4.26-4.2,4.26-10.43
							c0-5.78,1.29-10.86,3.88-15.27c2.59-4.4,6.17-7.82,10.76-10.25c4.6-2.43,9.87-3.65,15.81-3.65c2.89,0,5.77,0.43,8.62,1.29
							c2.85,0.85,5.2,2.19,7.06,4.02c1.86,1.83,2.8,4.09,2.8,6.77c0,2.52-0.76,4.69-2.27,6.52c-1.52,1.83-3.52,2.75-6.02,2.75
							c-1.22,0-2.39-0.28-3.54-0.85c-1.13-0.57-1.73-1.31-1.78-2.23c0-0.05,0.39-0.36,1.17-0.94c0.79-0.58,1.52-1.36,2.18-2.33
							c0.68-0.97,1.02-2.14,1.02-3.5c0-2.4-0.96-4.34-2.88-5.83c-1.92-1.48-4.4-2.23-7.42-2.23c-3.6,0-6.86,0.99-9.77,2.96
							c-2.91,1.97-5.21,4.86-6.91,8.67c-1.68,3.79-2.52,8.32-2.52,13.58c0,5.08,0.83,9.49,2.48,13.21c1.66,3.72,3.99,6.57,6.99,8.54
							c2.99,1.97,6.47,2.96,10.43,2.96c1.86,0,3.49-0.09,4.87-0.29c1.4-0.21,2.91-0.57,4.56-1.08V3.64c0-2-0.08-3.4-0.23-4.21
							c-0.14-0.8-0.61-1.4-1.4-1.79c-0.78-0.4-2.1-0.6-3.96-0.6c-0.64,0-1.1-0.09-1.4-0.29c-0.29-0.21-0.46-0.71-0.51-1.52
							c0-0.51,0.15-0.95,0.47-1.31c0.32-0.38,0.77-0.56,1.36-0.56c3.67,0.17,6.87,0.25,9.6,0.25c2.61,0,5.75-0.08,9.43-0.25
							c0.52,0,0.92,0.19,1.21,0.56c0.3,0.36,0.44,0.8,0.44,1.31c-0.06,0.81-0.23,1.31-0.53,1.52c-0.29,0.2-0.75,0.29-1.4,0.29
							c-1.74,0-2.99,0.23-3.75,0.69c-0.75,0.46-1.22,1.1-1.4,1.94c-0.17,0.82-0.25,2.15-0.25,3.98v10.12
							c-3.43,1.6-6.58,2.69-9.43,3.29C39.18,17.65,35.6,17.95,31.3,17.95z"/>
					</g>
				</g>
			</g>
			<g>
				<g transform="translate(40.785547, 48.721178)">
					<g>
						<path d="M38.43,17.26c-3.96,0-7.47-0.93-10.55-2.77c-3.08-1.86-5.48-4.32-7.2-7.38c-1.71-3.07-2.56-6.32-2.56-9.75
							c0-4.29,1.02-8.02,3.05-11.19c2.03-3.18,4.62-5.61,7.76-7.29c3.15-1.68,6.32-2.52,9.51-2.52c3.95,0,7.47,0.93,10.55,2.79
							c3.08,1.85,5.47,4.31,7.18,7.38c1.72,3.06,2.59,6.3,2.59,9.73c0,4.29-1.03,8.03-3.09,11.21c-2.07,3.17-4.67,5.59-7.82,7.27
							C44.7,16.42,41.56,17.26,38.43,17.26z M38.43,14.09c3.95,0,6.84-1.65,8.67-4.96c1.83-3.32,2.75-7.61,2.75-12.88
							c0-4.92-0.95-8.93-2.84-12.04c-1.88-3.12-4.74-4.69-8.58-4.69c-4.02,0-6.92,1.64-8.73,4.9c-1.8,3.25-2.69,7.51-2.69,12.77
							c0,4.92,0.92,8.97,2.78,12.15C31.65,12.51,34.53,14.09,38.43,14.09z"/>
					</g>
				</g>
			</g>
			<g>
				<g transform="translate(72.885324, 48.721178)">
					<g>
						<path d="M46.89,17.26c-3.96,0-7.1-1.17-9.43-3.5c-2.32-2.34-3.48-5.44-3.48-9.27v-15.88c0-1.48-0.05-2.57-0.15-3.25
							c-0.08-0.69-0.44-1.3-1.08-1.81c-0.64-0.51-1.71-0.77-3.22-0.77c-0.71,0-1.24-0.09-1.59-0.29c-0.34-0.19-0.51-0.67-0.51-1.42
							c0-0.34,0.11-0.67,0.34-0.98c0.24-0.32,0.59-0.51,1.06-0.56c3.66-0.51,6.79-1.26,9.41-2.23c0.82-0.29,1.49-0.46,2.01-0.52
							h0.28c0.92,0,1.38,0.54,1.38,1.62v26c0,2.62,0.84,4.64,2.52,6.04c1.7,1.41,3.65,2.1,5.87,2.1c2.72,0,5.05-0.65,6.97-1.96
							c1.92-1.32,3.2-2.64,3.84-3.96v-18.02c0-1.48-0.04-2.57-0.13-3.25c-0.08-0.69-0.46-1.3-1.1-1.81
							c-0.64-0.51-1.71-0.77-3.22-0.77c-0.69,0-1.22-0.09-1.57-0.29c-0.35-0.19-0.53-0.67-0.53-1.42c0-0.34,0.11-0.67,0.34-0.98
							c0.24-0.32,0.59-0.51,1.06-0.56c3.67-0.51,6.81-1.26,9.43-2.23c0.82-0.29,1.49-0.46,2.01-0.52h0.25c0.93,0,1.4,0.54,1.4,1.62
							V8.09c0,3.38,2.29,5.06,6.89,5.06c0.99,0,1.48,0.54,1.48,1.62c0,0.81-0.5,1.29-1.48,1.46L61.9,17.18
							c-0.41,0-0.65-0.14-0.7-0.4c-0.06-0.25-0.08-0.69-0.08-1.31v-4.81h-0.17c-1.68,1.56-3.05,2.75-4.11,3.58
							c-1.05,0.82-2.39,1.53-4.05,2.12C51.13,16.96,49.17,17.26,46.89,17.26z"/>
					</g>
				</g>
			</g>
			<g>
				<g transform="translate(107.365236, 48.721178)">
					<g>
						<path d="M60.13,17.09c-1.52-3.19-3.63-8.31-6.36-15.35c-0.24-0.57-1.05-2.62-2.42-6.17c-1.36-3.54-2.65-6.51-3.88-8.92
							c-0.99-2.23-1.92-3.76-2.8-4.58c-0.86-0.83-2.13-1.36-3.81-1.6c-0.19-0.05-0.51-0.11-0.97-0.17
							c-0.47-0.05-0.76-0.19-0.87-0.42c-0.12-0.23-0.17-0.64-0.17-1.21c0-0.69,0.18-1.12,0.55-1.29c0.38-0.17,0.85-0.26,1.4-0.29
							c0.56-0.03,0.93-0.04,1.1-0.04c3.54-0.18,6.34,0.32,8.37,1.5c2.03,1.17,3.72,3.21,5.06,6.13c0.05,0.11,1.19,2.85,3.39,8.23
							c2.68,6.7,4.6,11.24,5.76,13.65h0.28l8.62-22.48c0.3-0.97,0.44-1.66,0.44-2.06c0-0.62-0.3-1.05-0.89-1.27
							c-0.58-0.23-1.54-0.35-2.86-0.35h-0.53c-0.47,0-0.81-0.08-1.02-0.25c-0.2-0.18-0.33-0.61-0.38-1.29c0-0.4,0.1-0.78,0.3-1.15
							c0.21-0.38,0.52-0.56,0.93-0.56c3.31,0.17,6.12,0.25,8.45,0.25c0.93,0,2.73-0.05,5.4-0.17l1.84-0.08
							c0.41,0,0.73,0.19,0.95,0.56c0.24,0.36,0.36,0.74,0.36,1.15c-0.07,0.68-0.22,1.11-0.44,1.29c-0.23,0.17-0.57,0.25-1.04,0.25
							c-2.16,0-3.82,0.35-4.98,1.04c-1.16,0.68-2.15,2.02-2.97,4.02c-1.35,3.32-3.85,9.41-7.5,18.27
							c-3.66,8.86-5.55,13.32-5.68,13.38H60.13z"/>
					</g>
				</g>
			</g>
			<g>
				<g transform="translate(137.728037, 48.721178)">
					<g>
						<path d="M73.04,17.26c-4.37,0-8.07-0.91-11.12-2.73c-3.05-1.83-5.36-4.32-6.93-7.46c-1.57-3.15-2.35-6.65-2.35-10.48
							c0-3.38,0.79-6.61,2.39-9.73c1.59-3.11,3.88-5.64,6.84-7.58c2.97-1.94,6.37-2.92,10.21-2.92c5.17,0,9.15,1.3,11.95,3.9
							c2.8,2.6,4.39,6.1,4.79,10.5c0,1.89-0.52,3.18-1.57,3.88c-1.05,0.68-2.56,1.02-4.53,1.02H61.53c0,5.32,1.11,9.54,3.35,12.67
							c2.25,3.11,5.72,4.67,10.43,4.67c2.5,0,4.62-0.53,6.36-1.58c1.75-1.07,3.41-2.86,4.98-5.38c0.3-0.29,0.59-0.44,0.89-0.44
							c0.39,0,0.74,0.12,1.04,0.35c0.58,0.35,0.87,0.86,0.87,1.54c0,0.35-0.06,0.6-0.17,0.77c-1.81,2.86-4.1,5.08-6.87,6.65
							C79.65,16.47,76.52,17.26,73.04,17.26z M75.75-7.61c2.97,0,4.53-1.19,4.7-3.58c0-2.64-0.73-4.86-2.18-6.69
							c-1.46-1.83-3.52-2.75-6.19-2.75c-2.97,0-5.41,1.16-7.33,3.48c-1.92,2.31-3,5.49-3.22,9.54H75.75z"/>
					</g>
				</g>
			</g>
			<g>
				<g transform="translate(166.868692, 48.721178)">
					<g>
						<path d="M63.71,16.49c-0.41,0-0.75-0.17-1.02-0.5c-0.25-0.34-0.38-0.75-0.38-1.21c0.05-0.75,0.22-1.19,0.51-1.33
							c0.3-0.14,0.83-0.21,1.59-0.21c1.51,0,2.59-0.26,3.22-0.77c0.64-0.51,1-1.11,1.08-1.79c0.1-0.69,0.15-1.78,0.15-3.27v-19.65
							c0-1.48-0.05-2.57-0.15-3.25c-0.08-0.69-0.44-1.3-1.08-1.81c-0.64-0.51-1.71-0.77-3.22-0.77c-0.71,0-1.24-0.09-1.59-0.29
							c-0.34-0.21-0.51-0.68-0.51-1.42c0-0.34,0.11-0.67,0.34-0.98c0.24-0.32,0.59-0.51,1.06-0.56c3.77-0.57,6.88-1.31,9.32-2.23
							c0.99-0.29,1.66-0.46,2.01-0.52h0.25c0.93,0,1.4,0.54,1.4,1.62v5.31h0.28c2.03-2,4.09-3.58,6.19-4.75
							c2.09-1.17,3.97-1.75,5.66-1.75c1.92,0,3.44,0.7,4.58,2.1c1.14,1.39,1.72,3,1.72,4.83c0,1.6-0.5,3.03-1.48,4.29
							c-0.99,1.25-2.36,1.88-4.11,1.88c-0.81,0-1.52-0.17-2.14-0.5c-0.61-0.34-0.94-0.63-1-0.85c0.05-0.12,0.34-0.48,0.87-1.08
							c0.52-0.59,0.78-1.3,0.78-2.1c0-1.03-0.28-1.85-0.83-2.48s-1.29-0.94-2.22-0.94c-0.99,0-2.24,0.47-3.75,1.42
							c-1.52,0.93-3,2.11-4.45,3.54V7.41c0,1.49,0.05,2.58,0.17,3.27c0.13,0.68,0.51,1.28,1.14,1.79c0.64,0.52,1.71,0.77,3.22,0.77
							h0.53c0.47,0,0.81,0.09,1.04,0.27c0.24,0.17,0.39,0.59,0.44,1.27c0,0.46-0.12,0.86-0.36,1.21c-0.23,0.33-0.57,0.5-1.04,0.5
							c-3.38-0.17-6.43-0.25-9.15-0.25C70.16,16.24,67.14,16.32,63.71,16.49z"/>
					</g>
				</g>
			</g>
			<g>
				<g transform="translate(191.056021, 48.721178)">
					<g>
						<path d="M72.32,16.49c-0.41,0-0.75-0.17-1.02-0.5c-0.25-0.34-0.38-0.75-0.38-1.21c0.05-0.75,0.22-1.19,0.51-1.33
							c0.3-0.14,0.83-0.21,1.59-0.21c1.51,0,2.59-0.26,3.22-0.77c0.64-0.51,1-1.11,1.08-1.79c0.1-0.69,0.15-1.78,0.15-3.27v-19.65
							c0-1.48-0.05-2.57-0.15-3.25c-0.08-0.69-0.44-1.3-1.08-1.81c-0.64-0.51-1.71-0.77-3.22-0.77c-0.71,0-1.24-0.09-1.59-0.29
							c-0.34-0.21-0.51-0.68-0.51-1.42c0-0.34,0.11-0.67,0.34-0.98c0.24-0.32,0.59-0.51,1.06-0.56c3.77-0.57,6.88-1.31,9.32-2.23
							c0.99-0.29,1.66-0.46,2.01-0.52h0.25c0.93,0,1.4,0.54,1.4,1.62v5.42h0.28c1.68-1.55,3.04-2.74,4.09-3.56
							c1.04-0.83,2.39-1.55,4.05-2.15c1.66-0.59,3.63-0.9,5.89-0.9c3.95,0,7.1,1.18,9.43,3.52c2.33,2.33,3.5,5.42,3.5,9.25V7.41
							c0,1.49,0.05,2.58,0.17,3.27c0.11,0.68,0.49,1.28,1.12,1.79c0.65,0.52,1.73,0.77,3.24,0.77h0.51c0.47,0,0.81,0.09,1.04,0.27
							c0.24,0.17,0.39,0.59,0.44,1.27c0,0.46-0.14,0.86-0.4,1.21c-0.25,0.33-0.58,0.5-0.97,0.5c-3.38-0.17-6.44-0.25-9.18-0.25
							c-2.62,0-5.64,0.08-9.07,0.25c-0.41,0-0.75-0.17-1.02-0.5c-0.25-0.34-0.38-0.75-0.38-1.21c0.05-0.75,0.21-1.19,0.47-1.33
							c0.26-0.14,0.78-0.21,1.55-0.21c1.51,0,2.59-0.26,3.22-0.77c0.65-0.51,1.03-1.11,1.14-1.79c0.11-0.69,0.17-1.78,0.17-3.27
							v-18.19c0-2.62-0.85-4.64-2.54-6.04c-1.68-1.4-3.62-2.1-5.83-2.1c-2.69,0-4.99,0.65-6.91,1.94c-1.91,1.28-3.22,2.6-3.92,3.98
							V7.41c0,1.49,0.05,2.58,0.17,3.27c0.13,0.68,0.51,1.28,1.14,1.79c0.64,0.52,1.71,0.77,3.22,0.77h0.53
							c0.47,0,0.81,0.09,1.04,0.27c0.24,0.17,0.39,0.59,0.44,1.27c0,0.46-0.12,0.86-0.36,1.21c-0.23,0.33-0.57,0.5-1.04,0.5
							c-3.38-0.17-6.43-0.25-9.15-0.25C78.78,16.24,75.76,16.32,72.32,16.49z"/>
					</g>
				</g>
			</g>
			<g>
				<g transform="translate(226.436578, 48.721178)">
					<g>
						<path d="M95.31,17.26c-3.49,0-6.31-0.97-8.48-2.92c-2.15-1.94-3.22-4.38-3.22-7.29c0-3.59,1.22-6.29,3.67-8.08
							c2.44-1.8,5.35-2.98,8.71-3.52c3.37-0.54,7.74-0.96,13.1-1.25v-6.77c0-2.8-0.72-4.94-2.14-6.4c-1.43-1.46-3.71-2.19-6.84-2.19
							c-1.81,0-3.39,0.54-4.73,1.62c-1.33,1.08-1.99,2.54-1.99,4.38c0,0.92,0.22,1.68,0.66,2.29c0.43,0.6,0.9,1.1,1.4,1.5
							c0.49,0.39,0.74,0.61,0.74,0.67c0,0.35-0.37,0.79-1.1,1.33c-0.72,0.54-1.61,0.81-2.65,0.81c-1.75,0-3.14-0.62-4.15-1.88
							c-1.02-1.26-1.53-2.75-1.53-4.46c0-2.98,1.35-5.19,4.05-6.6c2.71-1.43,5.99-2.15,9.83-2.15c4.76,0,8.63,0.89,11.63,2.67
							c2.99,1.77,4.49,5.05,4.49,9.85V8.87c0.07,1.2,0.45,2.34,1.14,3.44c0.69,1.08,1.83,1.62,3.41,1.62c0.45,0,0.77,0.09,0.97,0.27
							c0.21,0.17,0.32,0.54,0.32,1.1c0,0.68-0.54,1.17-1.61,1.48c-1.08,0.32-2.13,0.48-3.18,0.48c-2.22,0-4.17-0.62-5.85-1.88
							c-1.68-1.26-2.64-2.95-2.88-5.06c-1.22,2.22-3.09,3.94-5.62,5.15C100.93,16.66,98.22,17.26,95.31,17.26z M98.08,12.64
							c1.98,0,3.8-0.48,5.49-1.46c1.7-0.97,3.04-2.3,4.03-3.98c0.99-1.69,1.48-3.57,1.48-5.62v-4.9c-6.1,0.46-10.4,1.43-12.9,2.92
							c-2.5,1.49-3.75,3.89-3.75,7.21C92.43,10.69,94.31,12.64,98.08,12.64z"/>
					</g>
				</g>
			</g>
			<g>
				<g transform="translate(255.19125, 48.721178)">
					<g>
						<path d="M95.17,16.49c-0.41,0-0.75-0.17-1.02-0.5c-0.25-0.34-0.38-0.75-0.38-1.21c0.05-0.75,0.22-1.19,0.51-1.33
							c0.3-0.14,0.83-0.21,1.59-0.21c1.51,0,2.59-0.26,3.22-0.77c0.64-0.51,1-1.11,1.08-1.79c0.1-0.69,0.15-1.78,0.15-3.27v-19.65
							c0-1.48-0.05-2.57-0.15-3.25c-0.08-0.69-0.44-1.3-1.08-1.81c-0.64-0.51-1.71-0.77-3.22-0.77c-0.71,0-1.24-0.09-1.59-0.29
							c-0.34-0.21-0.51-0.68-0.51-1.42c0-0.34,0.11-0.67,0.34-0.98c0.24-0.32,0.59-0.51,1.06-0.56c3.77-0.57,6.88-1.31,9.32-2.23
							c0.99-0.29,1.66-0.46,2.01-0.52h0.25c0.93,0,1.4,0.54,1.4,1.62v5.42h0.28c1.68-1.55,3.04-2.74,4.09-3.56
							c1.04-0.83,2.39-1.55,4.05-2.15c1.66-0.59,3.63-0.9,5.89-0.9c3.95,0,7.1,1.18,9.43,3.52c2.33,2.33,3.5,5.42,3.5,9.25V7.41
							c0,1.49,0.05,2.58,0.17,3.27c0.11,0.68,0.49,1.28,1.12,1.79c0.65,0.52,1.73,0.77,3.24,0.77h0.51c0.47,0,0.81,0.09,1.04,0.27
							c0.24,0.17,0.39,0.59,0.44,1.27c0,0.46-0.14,0.86-0.4,1.21c-0.25,0.33-0.58,0.5-0.97,0.5c-3.38-0.17-6.44-0.25-9.18-0.25
							c-2.62,0-5.64,0.08-9.07,0.25c-0.41,0-0.75-0.17-1.02-0.5c-0.25-0.34-0.38-0.75-0.38-1.21c0.05-0.75,0.21-1.19,0.47-1.33
							c0.26-0.14,0.78-0.21,1.55-0.21c1.51,0,2.59-0.26,3.22-0.77c0.65-0.51,1.03-1.11,1.14-1.79c0.11-0.69,0.17-1.78,0.17-3.27
							v-18.19c0-2.62-0.85-4.64-2.54-6.04c-1.68-1.4-3.62-2.1-5.83-2.1c-2.69,0-4.99,0.65-6.91,1.94c-1.91,1.28-3.22,2.6-3.92,3.98
							V7.41c0,1.49,0.05,2.58,0.17,3.27c0.13,0.68,0.51,1.28,1.14,1.79c0.64,0.52,1.71,0.77,3.22,0.77h0.53
							c0.47,0,0.81,0.09,1.04,0.27c0.24,0.17,0.39,0.59,0.44,1.27c0,0.46-0.12,0.86-0.36,1.21c-0.23,0.33-0.57,0.5-1.04,0.5
							c-3.38-0.17-6.43-0.25-9.15-0.25C101.62,16.24,98.6,16.32,95.17,16.49z"/>
					</g>
				</g>
			</g>
			<g>
				<g transform="translate(290.314476, 48.721178)">
					<g>
						<path d="M125.98,17.26c-5.93,0-10.59-1.85-13.96-5.56c-3.36-3.72-5.04-8.7-5.04-14.94c0.11-3.89,1.08-7.36,2.9-10.42
							c1.83-3.05,4.29-5.45,7.37-7.19c3.09-1.75,6.49-2.68,10.21-2.79c3.73,0,6.94,0.69,9.64,2.06c2.71,1.36,4.07,3.65,4.07,6.85
							c0,1.77-0.55,3.32-1.63,4.67c-1.08,1.35-2.51,2.02-4.3,2.02c-1.12,0-2.07-0.28-2.86-0.85c-0.78-0.57-1.17-1.05-1.17-1.46
							c0-0.05,0.26-0.31,0.78-0.77c0.52-0.46,1-1.01,1.44-1.67c0.43-0.67,0.66-1.43,0.66-2.29c0-1.76-0.66-3.1-1.97-4.02
							c-1.3-0.92-2.88-1.38-4.75-1.38c-4.48,0-7.52,1.62-9.11,4.85c-1.6,3.22-2.39,7.27-2.39,12.13c0,4.81,1.1,8.76,3.31,11.85
							c2.21,3.08,5.15,4.62,8.81,4.62c2.5,0,4.63-0.53,6.4-1.58c1.78-1.07,3.4-2.69,4.85-4.85c0.17-0.29,0.46-0.44,0.87-0.44
							c0.3,0,0.62,0.09,0.97,0.27c0.28,0.11,0.51,0.31,0.68,0.6c0.18,0.28,0.28,0.56,0.28,0.85c0,0.17-0.1,0.39-0.28,0.67
							c-1.91,2.7-4.29,4.83-7.14,6.4C131.77,16.47,128.89,17.26,125.98,17.26z"/>
					</g>
				</g>
			</g>
			<g>
				<g transform="translate(317.718245, 48.721178)">
					<g>
						<path d="M137.14,17.26c-4.37,0-8.07-0.91-11.12-2.73c-3.05-1.83-5.36-4.32-6.93-7.46c-1.57-3.15-2.35-6.65-2.35-10.48
							c0-3.38,0.79-6.61,2.39-9.73c1.59-3.11,3.88-5.64,6.84-7.58c2.97-1.94,6.37-2.92,10.21-2.92c5.17,0,9.15,1.3,11.95,3.9
							c2.8,2.6,4.39,6.1,4.79,10.5c0,1.89-0.52,3.18-1.57,3.88c-1.05,0.68-2.56,1.02-4.53,1.02h-21.19c0,5.32,1.11,9.54,3.35,12.67
							c2.25,3.11,5.72,4.67,10.43,4.67c2.5,0,4.62-0.53,6.36-1.58c1.75-1.07,3.41-2.86,4.98-5.38c0.3-0.29,0.59-0.44,0.89-0.44
							c0.39,0,0.74,0.12,1.04,0.35c0.58,0.35,0.87,0.86,0.87,1.54c0,0.35-0.06,0.6-0.17,0.77c-1.81,2.86-4.1,5.08-6.87,6.65
							C143.75,16.47,140.63,17.26,137.14,17.26z M139.85-7.61c2.97,0,4.53-1.19,4.7-3.58c0-2.64-0.73-4.86-2.18-6.69
							c-1.46-1.83-3.52-2.75-6.19-2.75c-2.97,0-5.41,1.16-7.33,3.48c-1.92,2.31-3,5.49-3.22,9.54H139.85z"/>
					</g>
				</g>
			</g>
		</g>
	</g>
</g>
<g>
	<defs>
		<rect id="SVGID_00000182509477734636150240000013446080697710734508_" x="477.6" y="50.06" width="15.71" height="15.71"/>
	</defs>
	<clipPath id="SVGID_00000049903709509370402860000003330699797016957826_">
		<use xlink:href="#SVGID_00000182509477734636150240000013446080697710734508_"  style="overflow:visible;"/>
	</clipPath>
	<g style="clip-path:url(#SVGID_00000049903709509370402860000003330699797016957826_);">
		<g>
			<defs>
				<circle id="SVGID_00000149341533012311295130000005649501620657227142_" cx="485.46" cy="57.91" r="7.85"/>
			</defs>
			<clipPath id="SVGID_00000121962823557313774400000000198262982688244620_">
				<use xlink:href="#SVGID_00000149341533012311295130000005649501620657227142_"  style="overflow:visible;"/>
			</clipPath>
			<g style="clip-path:url(#SVGID_00000121962823557313774400000000198262982688244620_);">
				<g transform="matrix(1, 0, 0, 1, 353, 37)">
					<g>
						<defs>
							<rect id="SVGID_00000057863177333058492520000001286669791591546021_" x="123.67" y="12.33" width="17.33" height="17.33"/>
						</defs>
						<clipPath id="SVGID_00000129926572986049632300000003505240610729398702_">
							<use xlink:href="#SVGID_00000057863177333058492520000001286669791591546021_"  style="overflow:visible;"/>
						</clipPath>
						<g style="clip-path:url(#SVGID_00000129926572986049632300000003505240610729398702_);">
							<g>
								<defs>
									<rect id="SVGID_00000070105787287851605020000011552648131364647562_" x="124.6" y="13.06" width="15.71" height="15.71"/>
								</defs>
								<clipPath id="SVGID_00000054263833457512789510000015493506544483393959_">
									<use xlink:href="#SVGID_00000070105787287851605020000011552648131364647562_"  style="overflow:visible;"/>
								</clipPath>
								<g style="clip-path:url(#SVGID_00000054263833457512789510000015493506544483393959_);">
									<g>
										<defs>
											
												<ellipse id="SVGID_00000034768601854404985670000012895300148484842903_" transform="matrix(0.9239 -0.3827 0.3827 0.9239 2.0803 52.2815)" cx="132.46" cy="20.91" rx="7.85" ry="7.85"/>
										</defs>
										<clipPath id="SVGID_00000013907694198474913280000012163192220470019491_">
											<use xlink:href="#SVGID_00000034768601854404985670000012895300148484842903_"  style="overflow:visible;"/>
										</clipPath>
										<g style="clip-path:url(#SVGID_00000013907694198474913280000012163192220470019491_);">
											<path class="st6" d="M124.6,13.06h15.71v15.71H124.6V13.06z"/>
										</g>
									</g>
								</g>
							</g>
						</g>
					</g>
				</g>
			</g>
		</g>
	</g>
</g>
</svg>
