<svg xmlns="http://www.w3.org/2000/svg" xmlns:xlink="http://www.w3.org/1999/xlink" width="500" zoomAndPan="magnify" viewBox="0 0 375 60" height="80" preserveAspectRatio="xMidYMid meet" version="1.0"><defs><g/></defs><path fill="#312dee" d="M 59.980469 26.296875 L 56.414062 34.066406 L 54.714844 37.761719 L 53.519531 40.367188 C 50.667969 45.691406 45.828125 49.796875 39.996094 51.6875 L 41.101562 49.28125 L 41.09375 49.277344 L 46.667969 37.132812 L 47.796875 34.683594 L 48.082031 34.0625 L 50.535156 28.71875 L 51.648438 26.292969 L 59.980469 26.292969 Z M 59.980469 26.296875 " fill-opacity="1" fill-rule="nonzero"/><path fill="#1e1a30" d="M 50.535156 28.71875 L 48.441406 33.28125 L 47.796875 34.679688 C 47.488281 35.53125 47.109375 36.351562 46.667969 37.128906 C 45 40.082031 42.414062 42.453125 39.304688 43.855469 C 37.300781 44.761719 35.078125 45.265625 32.738281 45.265625 C 23.65625 45.265625 16.316406 37.65625 16.761719 28.476562 C 16.917969 25.273438 18.027344 22.308594 19.816406 19.863281 C 22.605469 16.050781 27.039062 13.5 32.042969 13.285156 C 35.257812 13.148438 38.28125 13.96875 40.84375 15.480469 C 42.257812 16.316406 44.058594 16.105469 45.285156 15.011719 C 46.132812 14.257812 46.539062 13.238281 46.539062 12.222656 C 46.539062 10.949219 45.898438 9.683594 44.675781 8.960938 C 41.171875 6.894531 37.09375 5.710938 32.738281 5.710938 C 27.910156 5.710938 23.417969 7.167969 19.679688 9.667969 C 13.109375 14.058594 8.863281 21.664062 9.199219 30.21875 C 9.679688 42.417969 19.558594 52.316406 31.765625 52.808594 C 34.644531 52.925781 37.417969 52.523438 39.996094 51.6875 C 43.511719 50.546875 46.664062 48.605469 49.242188 46.070312 C 50.941406 44.40625 52.386719 42.480469 53.519531 40.367188 C 53.96875 39.527344 54.371094 38.660156 54.714844 37.761719 C 55.273438 36.328125 55.691406 34.828125 55.957031 33.28125 C 56.171875 32.035156 56.289062 30.761719 56.296875 29.460938 Z M 50.535156 28.71875 " fill-opacity="1" fill-rule="nonzero"/><path fill="#1e1a30" d="M 59.921875 26.402344 L 56.761719 33.28125 L 34.347656 33.28125 C 32.191406 33.28125 30.359375 31.566406 30.351562 29.40625 C 30.347656 28.328125 30.78125 27.355469 31.488281 26.648438 C 32.191406 25.945312 33.164062 25.511719 34.234375 25.511719 L 59.355469 25.511719 C 59.8125 25.511719 60.117188 25.984375 59.925781 26.398438 Z M 59.921875 26.402344 " fill-opacity="1" fill-rule="nonzero"/><path fill="#252243" d="M 32.042969 13.289062 C 27.039062 13.5 22.605469 16.050781 19.816406 19.863281 C 19.5 18.074219 19.339844 16.230469 19.339844 14.351562 C 19.339844 12.761719 19.457031 11.195312 19.683594 9.667969 C 23.421875 7.167969 27.914062 5.710938 32.742188 5.710938 C 37.09375 5.710938 41.171875 6.898438 44.675781 8.960938 C 45.902344 9.683594 46.542969 10.953125 46.542969 12.222656 C 46.542969 13.238281 46.132812 14.257812 45.285156 15.011719 C 44.058594 16.105469 42.257812 16.316406 40.84375 15.484375 C 38.28125 13.96875 35.257812 13.148438 32.042969 13.289062 Z M 32.042969 13.289062 " fill-opacity="1" fill-rule="nonzero"/><path fill="#1e1a30" d="M 59.351562 25.511719 C 59.808594 25.511719 60.113281 25.984375 59.921875 26.402344 L 56.761719 33.28125 C 56.761719 33.28125 53.96875 39.527344 53.519531 40.367188 C 52.386719 42.484375 50.941406 44.40625 49.242188 46.070312 C 45.75 45.871094 42.40625 45.101562 39.304688 43.859375 C 42.414062 42.453125 45 40.085938 46.667969 37.132812 C 47.109375 36.355469 47.488281 35.535156 47.796875 34.683594 L 48.441406 33.28125 L 34.347656 33.28125 C 32.191406 33.28125 30.359375 31.570312 30.351562 29.410156 C 30.347656 28.332031 30.78125 27.355469 31.488281 26.648438 C 32.191406 25.949219 33.164062 25.511719 34.234375 25.511719 L 59.355469 25.511719 Z M 59.351562 25.511719 " fill-opacity="1" fill-rule="nonzero"/><path fill="#57886c" d="M 60.90625 17.105469 C 61.011719 17.871094 60.886719 18.613281 60.578125 19.257812 C 60.367188 19.703125 60.074219 20.101562 59.71875 20.429688 C 59.171875 20.9375 58.46875 21.285156 57.679688 21.398438 C 55.597656 21.691406 53.679688 20.246094 53.386719 18.167969 C 53.257812 17.253906 53.460938 16.371094 53.914062 15.644531 C 54.242188 15.113281 54.699219 14.664062 55.25 14.347656 C 55.660156 14.109375 56.117188 13.949219 56.617188 13.875 C 58.691406 13.582031 60.613281 15.03125 60.90625 17.105469 Z M 60.90625 17.105469 " fill-opacity="1" fill-rule="nonzero"/><path fill="#6c9d81" d="M 60.90625 17.105469 C 61.011719 17.871094 60.886719 18.613281 60.578125 19.257812 C 58.339844 18.242188 56.457031 16.527344 55.25 14.34375 C 55.660156 14.105469 56.117188 13.945312 56.613281 13.875 C 58.691406 13.582031 60.609375 15.027344 60.90625 17.105469 Z M 60.90625 17.105469 " fill-opacity="1" fill-rule="nonzero"/><path fill="#57886c" d="M 90.035156 52.875 L 82.980469 52.875 C 82.628906 52.875 82.3125 52.671875 82.167969 52.355469 L 73.765625 34.0625 L 73.46875 33.421875 L 70.199219 26.292969 L 69.964844 25.785156 L 69.902344 25.652344 L 68.949219 23.582031 L 68.335938 22.246094 C 68.300781 22.164062 68.265625 22.078125 68.234375 21.992188 L 63.207031 11.046875 C 62.964844 10.527344 62.847656 9.980469 62.847656 9.445312 C 62.847656 8.023438 63.65625 6.664062 65.027344 6.019531 C 66.921875 5.132812 69.171875 5.949219 70.054688 7.839844 L 76.351562 21.542969 L 77.96875 25.070312 L 78.234375 25.652344 L 78.53125 26.296875 L 79.695312 28.828125 L 89.085938 49.277344 L 89.074219 49.28125 L 90.441406 52.25 C 90.574219 52.542969 90.359375 52.878906 90.035156 52.878906 Z M 90.035156 52.875 " fill-opacity="1" fill-rule="nonzero"/><path fill="#57886c" d="M 79.695312 28.828125 L 79.695312 33.421875 L 62.882812 33.421875 C 62.496094 33.421875 62.238281 33.019531 62.398438 32.664062 L 65.476562 25.960938 C 65.5625 25.773438 65.753906 25.652344 65.960938 25.652344 L 78.238281 25.652344 L 78.53125 26.296875 Z M 79.695312 28.828125 " fill-opacity="1" fill-rule="nonzero"/><path fill="#6c9d81" d="M 76.351562 21.542969 C 74.488281 22.847656 72.214844 23.613281 69.769531 23.613281 C 69.492188 23.613281 69.222656 23.601562 68.949219 23.582031 L 68.339844 22.246094 C 68.300781 22.164062 68.269531 22.078125 68.234375 21.996094 L 63.210938 11.046875 C 62.96875 10.527344 62.851562 9.984375 62.851562 9.449219 C 62.851562 8.023438 63.660156 6.664062 65.03125 6.023438 C 66.921875 5.136719 69.175781 5.949219 70.058594 7.84375 L 76.351562 21.546875 Z M 76.351562 21.542969 " fill-opacity="1" fill-rule="nonzero"/><g fill="#57886c" fill-opacity="1"><g transform="translate(100.012971, 49.974976)"><g/></g></g><g fill="#57886c" fill-opacity="1"><g transform="translate(105.145783, 49.974976)"><g><path d="M 1.78125 0 L 1.78125 -14.09375 L 4.765625 -14.09375 L 4.765625 0 Z M 1.78125 0 "/></g></g></g><g fill="#57886c" fill-opacity="1"><g transform="translate(111.68282, 49.974976)"><g><path d="M 14.28125 0 L 10.484375 0 L 4.34375 -10.671875 L 4.265625 -10.671875 C 4.390625 -8.785156 4.453125 -7.441406 4.453125 -6.640625 L 4.453125 0 L 1.78125 0 L 1.78125 -14.09375 L 5.546875 -14.09375 L 11.671875 -3.546875 L 11.734375 -3.546875 C 11.640625 -5.367188 11.59375 -6.660156 11.59375 -7.421875 L 11.59375 -14.09375 L 14.28125 -14.09375 Z M 14.28125 0 "/></g></g></g><g fill="#57886c" fill-opacity="1"><g transform="translate(127.736168, 49.974976)"><g><path d="M 7.21875 0 L 4.21875 0 L 4.21875 -11.609375 L 0.390625 -11.609375 L 0.390625 -14.09375 L 11.046875 -14.09375 L 11.046875 -11.609375 L 7.21875 -11.609375 Z M 7.21875 0 "/></g></g></g><g fill="#57886c" fill-opacity="1"><g transform="translate(139.171161, 49.974976)"><g><path d="M 9.890625 0 L 1.78125 0 L 1.78125 -14.09375 L 9.890625 -14.09375 L 9.890625 -11.65625 L 4.765625 -11.65625 L 4.765625 -8.546875 L 9.53125 -8.546875 L 9.53125 -6.109375 L 4.765625 -6.109375 L 4.765625 -2.46875 L 9.890625 -2.46875 Z M 9.890625 0 "/></g></g></g><g fill="#57886c" fill-opacity="1"><g transform="translate(150.230136, 49.974976)"><g><path d="M 1.78125 0 L 1.78125 -14.09375 L 4.765625 -14.09375 L 4.765625 -2.46875 L 10.484375 -2.46875 L 10.484375 0 Z M 1.78125 0 "/></g></g></g><g fill="#57886c" fill-opacity="1"><g transform="translate(161.385527, 49.974976)"><g><path d="M 1.78125 0 L 1.78125 -14.09375 L 4.765625 -14.09375 L 4.765625 -2.46875 L 10.484375 -2.46875 L 10.484375 0 Z M 1.78125 0 "/></g></g></g><g fill="#57886c" fill-opacity="1"><g transform="translate(172.540919, 49.974976)"><g><path d="M 1.78125 0 L 1.78125 -14.09375 L 4.765625 -14.09375 L 4.765625 0 Z M 1.78125 0 "/></g></g></g><g fill="#57886c" fill-opacity="1"><g transform="translate(179.077955, 49.974976)"><g><path d="M 7.125 -7.921875 L 12.71875 -7.921875 L 12.71875 -0.609375 C 11.8125 -0.304688 10.957031 -0.0976562 10.15625 0.015625 C 9.351562 0.128906 8.535156 0.1875 7.703125 0.1875 C 5.578125 0.1875 3.953125 -0.4375 2.828125 -1.6875 C 1.703125 -2.9375 1.140625 -4.726562 1.140625 -7.0625 C 1.140625 -9.34375 1.789062 -11.117188 3.09375 -12.390625 C 4.394531 -13.660156 6.203125 -14.296875 8.515625 -14.296875 C 9.960938 -14.296875 11.359375 -14.007812 12.703125 -13.4375 L 11.703125 -11.046875 C 10.679688 -11.554688 9.613281 -11.8125 8.5 -11.8125 C 7.207031 -11.8125 6.171875 -11.375 5.390625 -10.5 C 4.609375 -9.632812 4.21875 -8.472656 4.21875 -7.015625 C 4.21875 -5.484375 4.53125 -4.3125 5.15625 -3.5 C 5.789062 -2.695312 6.703125 -2.296875 7.890625 -2.296875 C 8.515625 -2.296875 9.148438 -2.359375 9.796875 -2.484375 L 9.796875 -5.421875 L 7.125 -5.421875 Z M 7.125 -7.921875 "/></g></g></g><g fill="#57886c" fill-opacity="1"><g transform="translate(193.376523, 49.974976)"><g><path d="M 9.890625 0 L 1.78125 0 L 1.78125 -14.09375 L 9.890625 -14.09375 L 9.890625 -11.65625 L 4.765625 -11.65625 L 4.765625 -8.546875 L 9.53125 -8.546875 L 9.53125 -6.109375 L 4.765625 -6.109375 L 4.765625 -2.46875 L 9.890625 -2.46875 Z M 9.890625 0 "/></g></g></g><g fill="#57886c" fill-opacity="1"><g transform="translate(204.435498, 49.974976)"><g><path d="M 14.28125 0 L 10.484375 0 L 4.34375 -10.671875 L 4.265625 -10.671875 C 4.390625 -8.785156 4.453125 -7.441406 4.453125 -6.640625 L 4.453125 0 L 1.78125 0 L 1.78125 -14.09375 L 5.546875 -14.09375 L 11.671875 -3.546875 L 11.734375 -3.546875 C 11.640625 -5.367188 11.59375 -6.660156 11.59375 -7.421875 L 11.59375 -14.09375 L 14.28125 -14.09375 Z M 14.28125 0 "/></g></g></g><g fill="#57886c" fill-opacity="1"><g transform="translate(220.488846, 49.974976)"><g><path d="M 7.765625 -11.8125 C 6.640625 -11.8125 5.765625 -11.390625 5.140625 -10.546875 C 4.523438 -9.703125 4.21875 -8.523438 4.21875 -7.015625 C 4.21875 -3.867188 5.398438 -2.296875 7.765625 -2.296875 C 8.753906 -2.296875 9.953125 -2.539062 11.359375 -3.03125 L 11.359375 -0.53125 C 10.203125 -0.0507812 8.910156 0.1875 7.484375 0.1875 C 5.429688 0.1875 3.859375 -0.429688 2.765625 -1.671875 C 1.679688 -2.921875 1.140625 -4.707031 1.140625 -7.03125 C 1.140625 -8.5 1.40625 -9.78125 1.9375 -10.875 C 2.476562 -11.976562 3.25 -12.820312 4.25 -13.40625 C 5.25 -14 6.421875 -14.296875 7.765625 -14.296875 C 9.128906 -14.296875 10.503906 -13.96875 11.890625 -13.3125 L 10.921875 -10.875 C 10.398438 -11.125 9.867188 -11.34375 9.328125 -11.53125 C 8.796875 -11.71875 8.273438 -11.8125 7.765625 -11.8125 Z M 7.765625 -11.8125 "/></g></g></g><g fill="#57886c" fill-opacity="1"><g transform="translate(233.071201, 49.974976)"><g><path d="M 9.890625 0 L 1.78125 0 L 1.78125 -14.09375 L 9.890625 -14.09375 L 9.890625 -11.65625 L 4.765625 -11.65625 L 4.765625 -8.546875 L 9.53125 -8.546875 L 9.53125 -6.109375 L 4.765625 -6.109375 L 4.765625 -2.46875 L 9.890625 -2.46875 Z M 9.890625 0 "/></g></g></g><g fill="#57886c" fill-opacity="1"><g transform="translate(244.130176, 49.974976)"><g/></g></g><g fill="#57886c" fill-opacity="1"><g transform="translate(249.259532, 49.974976)"><g><path d="M 10.40625 0 L 9.390625 -3.359375 L 4.25 -3.359375 L 3.21875 0 L 0 0 L 4.96875 -14.15625 L 8.625 -14.15625 L 13.625 0 Z M 8.671875 -5.859375 C 7.722656 -8.898438 7.1875 -10.617188 7.0625 -11.015625 C 6.945312 -11.421875 6.863281 -11.738281 6.8125 -11.96875 C 6.601562 -11.144531 6 -9.109375 5 -5.859375 Z M 8.671875 -5.859375 "/></g></g></g><g fill="#57886c" fill-opacity="1"><g transform="translate(262.883184, 49.974976)"><g><path d="M 4.765625 -7.84375 L 5.734375 -7.84375 C 6.671875 -7.84375 7.363281 -8 7.8125 -8.3125 C 8.269531 -8.625 8.5 -9.117188 8.5 -9.796875 C 8.5 -10.460938 8.265625 -10.9375 7.796875 -11.21875 C 7.335938 -11.507812 6.628906 -11.65625 5.671875 -11.65625 L 4.765625 -11.65625 Z M 4.765625 -5.40625 L 4.765625 0 L 1.78125 0 L 1.78125 -14.09375 L 5.875 -14.09375 C 7.789062 -14.09375 9.207031 -13.742188 10.125 -13.046875 C 11.050781 -12.347656 11.515625 -11.289062 11.515625 -9.875 C 11.515625 -9.039062 11.285156 -8.300781 10.828125 -7.65625 C 10.367188 -7.007812 9.722656 -6.503906 8.890625 -6.140625 C 11.015625 -2.972656 12.394531 -0.925781 13.03125 0 L 9.71875 0 L 6.359375 -5.40625 Z M 4.765625 -5.40625 "/></g></g></g><g fill="#57886c" fill-opacity="1"><g transform="translate(275.918691, 49.974976)"><g><path d="M 7.21875 0 L 4.21875 0 L 4.21875 -11.609375 L 0.390625 -11.609375 L 0.390625 -14.09375 L 11.046875 -14.09375 L 11.046875 -11.609375 L 7.21875 -11.609375 Z M 7.21875 0 "/></g></g></g><g fill="#57886c" fill-opacity="1"><g transform="translate(287.353684, 49.974976)"><g><path d="M 1.78125 0 L 1.78125 -14.09375 L 4.765625 -14.09375 L 4.765625 0 Z M 1.78125 0 "/></g></g></g><g fill="#57886c" fill-opacity="1"><g transform="translate(293.890721, 49.974976)"><g><path d="M 4.71875 0 L 1.78125 0 L 1.78125 -14.09375 L 9.859375 -14.09375 L 9.859375 -11.65625 L 4.71875 -11.65625 L 4.71875 -8.015625 L 9.5 -8.015625 L 9.5 -5.578125 L 4.71875 -5.578125 Z M 4.71875 0 "/></g></g></g><g fill="#57886c" fill-opacity="1"><g transform="translate(304.727943, 49.974976)"><g><path d="M 1.78125 0 L 1.78125 -14.09375 L 4.765625 -14.09375 L 4.765625 0 Z M 1.78125 0 "/></g></g></g><g fill="#57886c" fill-opacity="1"><g transform="translate(311.264969, 49.974976)"><g><path d="M 7.765625 -11.8125 C 6.640625 -11.8125 5.765625 -11.390625 5.140625 -10.546875 C 4.523438 -9.703125 4.21875 -8.523438 4.21875 -7.015625 C 4.21875 -3.867188 5.398438 -2.296875 7.765625 -2.296875 C 8.753906 -2.296875 9.953125 -2.539062 11.359375 -3.03125 L 11.359375 -0.53125 C 10.203125 -0.0507812 8.910156 0.1875 7.484375 0.1875 C 5.429688 0.1875 3.859375 -0.429688 2.765625 -1.671875 C 1.679688 -2.921875 1.140625 -4.707031 1.140625 -7.03125 C 1.140625 -8.5 1.40625 -9.78125 1.9375 -10.875 C 2.476562 -11.976562 3.25 -12.820312 4.25 -13.40625 C 5.25 -14 6.421875 -14.296875 7.765625 -14.296875 C 9.128906 -14.296875 10.503906 -13.96875 11.890625 -13.3125 L 10.921875 -10.875 C 10.398438 -11.125 9.867188 -11.34375 9.328125 -11.53125 C 8.796875 -11.71875 8.273438 -11.8125 7.765625 -11.8125 Z M 7.765625 -11.8125 "/></g></g></g><g fill="#57886c" fill-opacity="1"><g transform="translate(323.847312, 49.974976)"><g><path d="M 1.78125 0 L 1.78125 -14.09375 L 4.765625 -14.09375 L 4.765625 0 Z M 1.78125 0 "/></g></g></g><g fill="#57886c" fill-opacity="1"><g transform="translate(330.38436, 49.974976)"><g><path d="M 9.890625 0 L 1.78125 0 L 1.78125 -14.09375 L 9.890625 -14.09375 L 9.890625 -11.65625 L 4.765625 -11.65625 L 4.765625 -8.546875 L 9.53125 -8.546875 L 9.53125 -6.109375 L 4.765625 -6.109375 L 4.765625 -2.46875 L 9.890625 -2.46875 Z M 9.890625 0 "/></g></g></g><g fill="#57886c" fill-opacity="1"><g transform="translate(341.443335, 49.974976)"><g><path d="M 1.78125 0 L 1.78125 -14.09375 L 4.765625 -14.09375 L 4.765625 -2.46875 L 10.484375 -2.46875 L 10.484375 0 Z M 1.78125 0 "/></g></g></g><g fill="#57886c" fill-opacity="1"><g transform="translate(352.598715, 49.974976)"><g><path d="M 1.78125 0 L 1.78125 -14.09375 L 4.765625 -14.09375 L 4.765625 -2.46875 L 10.484375 -2.46875 L 10.484375 0 Z M 1.78125 0 "/></g></g></g><g fill="#57886c" fill-opacity="1"><g transform="translate(363.754117, 49.974976)"><g><path d="M 9.890625 0 L 1.78125 0 L 1.78125 -14.09375 L 9.890625 -14.09375 L 9.890625 -11.65625 L 4.765625 -11.65625 L 4.765625 -8.546875 L 9.53125 -8.546875 L 9.53125 -6.109375 L 4.765625 -6.109375 L 4.765625 -2.46875 L 9.890625 -2.46875 Z M 9.890625 0 "/></g></g></g><g fill="#252243" fill-opacity="1"><g transform="translate(102.51951, 23.625023)"><g><path d="M 7.578125 -12.1875 C 6.097656 -12.1875 4.929688 -11.695312 4.078125 -10.71875 C 3.234375 -9.738281 2.8125 -8.394531 2.8125 -6.6875 C 2.8125 -4.9375 3.222656 -3.582031 4.046875 -2.625 C 4.867188 -1.675781 6.035156 -1.203125 7.546875 -1.203125 C 8.484375 -1.203125 9.550781 -1.367188 10.75 -1.703125 L 10.75 -0.34375 C 9.820312 0.0078125 8.675781 0.1875 7.3125 0.1875 C 5.34375 0.1875 3.820312 -0.410156 2.75 -1.609375 C 1.675781 -2.804688 1.140625 -4.503906 1.140625 -6.703125 C 1.140625 -8.085938 1.394531 -9.296875 1.90625 -10.328125 C 2.425781 -11.367188 3.171875 -12.171875 4.140625 -12.734375 C 5.117188 -13.296875 6.269531 -13.578125 7.59375 -13.578125 C 9 -13.578125 10.222656 -13.320312 11.265625 -12.8125 L 10.609375 -11.46875 C 9.597656 -11.945312 8.585938 -12.1875 7.578125 -12.1875 Z M 7.578125 -12.1875 "/></g></g></g><g fill="#252243" fill-opacity="1"><g transform="translate(114.34073, 23.625023)"><g><path d="M 9.296875 0 L 1.84375 0 L 1.84375 -13.390625 L 9.296875 -13.390625 L 9.296875 -12 L 3.390625 -12 L 3.390625 -7.6875 L 8.9375 -7.6875 L 8.9375 -6.3125 L 3.390625 -6.3125 L 3.390625 -1.390625 L 9.296875 -1.390625 Z M 9.296875 0 "/></g></g></g><g fill="#252243" fill-opacity="1"><g transform="translate(124.762075, 23.625023)"><g><path d="M 3.390625 -5.5625 L 3.390625 0 L 1.84375 0 L 1.84375 -13.390625 L 5.515625 -13.390625 C 7.148438 -13.390625 8.359375 -13.070312 9.140625 -12.4375 C 9.929688 -11.8125 10.328125 -10.867188 10.328125 -9.609375 C 10.328125 -7.835938 9.429688 -6.640625 7.640625 -6.015625 L 11.265625 0 L 9.4375 0 L 6.1875 -5.5625 Z M 3.390625 -6.90625 L 5.53125 -6.90625 C 6.625 -6.90625 7.425781 -7.125 7.9375 -7.5625 C 8.457031 -8 8.71875 -8.648438 8.71875 -9.515625 C 8.71875 -10.398438 8.457031 -11.035156 7.9375 -11.421875 C 7.414062 -11.816406 6.578125 -12.015625 5.421875 -12.015625 L 3.390625 -12.015625 Z M 3.390625 -6.90625 "/></g></g></g><g fill="#252243" fill-opacity="1"><g transform="translate(136.345406, 23.625023)"><g><path d="M 7.578125 -12.1875 C 6.097656 -12.1875 4.929688 -11.695312 4.078125 -10.71875 C 3.234375 -9.738281 2.8125 -8.394531 2.8125 -6.6875 C 2.8125 -4.9375 3.222656 -3.582031 4.046875 -2.625 C 4.867188 -1.675781 6.035156 -1.203125 7.546875 -1.203125 C 8.484375 -1.203125 9.550781 -1.367188 10.75 -1.703125 L 10.75 -0.34375 C 9.820312 0.0078125 8.675781 0.1875 7.3125 0.1875 C 5.34375 0.1875 3.820312 -0.410156 2.75 -1.609375 C 1.675781 -2.804688 1.140625 -4.503906 1.140625 -6.703125 C 1.140625 -8.085938 1.394531 -9.296875 1.90625 -10.328125 C 2.425781 -11.367188 3.171875 -12.171875 4.140625 -12.734375 C 5.117188 -13.296875 6.269531 -13.578125 7.59375 -13.578125 C 9 -13.578125 10.222656 -13.320312 11.265625 -12.8125 L 10.609375 -11.46875 C 9.597656 -11.945312 8.585938 -12.1875 7.578125 -12.1875 Z M 7.578125 -12.1875 "/></g></g></g><g fill="#252243" fill-opacity="1"><g transform="translate(148.166626, 23.625023)"><g><path d="M 1.84375 0 L 1.84375 -13.390625 L 3.390625 -13.390625 L 3.390625 -1.40625 L 9.296875 -1.40625 L 9.296875 0 Z M 1.84375 0 "/></g></g></g><g fill="#252243" fill-opacity="1"><g transform="translate(157.892604, 23.625023)"><g><path d="M 9.296875 0 L 1.84375 0 L 1.84375 -13.390625 L 9.296875 -13.390625 L 9.296875 -12 L 3.390625 -12 L 3.390625 -7.6875 L 8.9375 -7.6875 L 8.9375 -6.3125 L 3.390625 -6.3125 L 3.390625 -1.390625 L 9.296875 -1.390625 Z M 9.296875 0 "/></g></g></g><g fill="#252243" fill-opacity="1"><g transform="translate(168.313949, 23.625023)"><g/></g></g><g fill="#252243" fill-opacity="1"><g transform="translate(173.18151, 23.625023)"><g><path d="M 12.53125 -6.828125 C 12.53125 -4.609375 11.925781 -2.914062 10.71875 -1.75 C 9.519531 -0.582031 7.796875 0 5.546875 0 L 1.84375 0 L 1.84375 -13.390625 L 5.9375 -13.390625 C 8.019531 -13.390625 9.640625 -12.8125 10.796875 -11.65625 C 11.953125 -10.5 12.53125 -8.890625 12.53125 -6.828125 Z M 10.875 -6.765625 C 10.875 -8.515625 10.4375 -9.832031 9.5625 -10.71875 C 8.6875 -11.601562 7.382812 -12.046875 5.65625 -12.046875 L 3.390625 -12.046875 L 3.390625 -1.34375 L 5.296875 -1.34375 C 7.148438 -1.34375 8.539062 -1.796875 9.46875 -2.703125 C 10.40625 -3.617188 10.875 -4.972656 10.875 -6.765625 Z M 10.875 -6.765625 "/></g></g></g><g fill="#252243" fill-opacity="1"><g transform="translate(186.841796, 23.625023)"><g><path d="M 9.296875 0 L 1.84375 0 L 1.84375 -13.390625 L 9.296875 -13.390625 L 9.296875 -12 L 3.390625 -12 L 3.390625 -7.6875 L 8.9375 -7.6875 L 8.9375 -6.3125 L 3.390625 -6.3125 L 3.390625 -1.390625 L 9.296875 -1.390625 Z M 9.296875 0 "/></g></g></g><g fill="#252243" fill-opacity="1"><g transform="translate(197.26314, 23.625023)"><g/></g></g><g fill="#252243" fill-opacity="1"><g transform="translate(202.130701, 23.625023)"><g><path d="M 7.734375 -7.015625 L 12.28125 -7.015625 L 12.28125 -0.5 C 11.570312 -0.28125 10.847656 -0.113281 10.109375 0 C 9.378906 0.125 8.535156 0.1875 7.578125 0.1875 C 5.546875 0.1875 3.960938 -0.414062 2.828125 -1.625 C 1.703125 -2.832031 1.140625 -4.519531 1.140625 -6.6875 C 1.140625 -8.082031 1.414062 -9.300781 1.96875 -10.34375 C 2.53125 -11.394531 3.335938 -12.195312 4.390625 -12.75 C 5.441406 -13.300781 6.671875 -13.578125 8.078125 -13.578125 C 9.503906 -13.578125 10.835938 -13.316406 12.078125 -12.796875 L 11.46875 -11.421875 C 10.257812 -11.929688 9.097656 -12.1875 7.984375 -12.1875 C 6.347656 -12.1875 5.070312 -11.703125 4.15625 -10.734375 C 3.25 -9.765625 2.796875 -8.414062 2.796875 -6.6875 C 2.796875 -4.882812 3.234375 -3.515625 4.109375 -2.578125 C 4.992188 -1.648438 6.289062 -1.1875 8 -1.1875 C 8.925781 -1.1875 9.832031 -1.289062 10.71875 -1.5 L 10.71875 -5.625 L 7.734375 -5.625 Z M 7.734375 -7.015625 "/></g></g></g><g fill="#252243" fill-opacity="1"><g transform="translate(215.772687, 23.625023)"><g><path d="M 13.453125 -6.703125 C 13.453125 -4.566406 12.910156 -2.882812 11.828125 -1.65625 C 10.742188 -0.425781 9.238281 0.1875 7.3125 0.1875 C 5.34375 0.1875 3.820312 -0.414062 2.75 -1.625 C 1.675781 -2.832031 1.140625 -4.535156 1.140625 -6.734375 C 1.140625 -8.910156 1.675781 -10.597656 2.75 -11.796875 C 3.820312 -12.992188 5.347656 -13.59375 7.328125 -13.59375 C 9.253906 -13.59375 10.753906 -12.984375 11.828125 -11.765625 C 12.910156 -10.546875 13.453125 -8.859375 13.453125 -6.703125 Z M 2.796875 -6.703125 C 2.796875 -4.890625 3.179688 -3.515625 3.953125 -2.578125 C 4.722656 -1.648438 5.84375 -1.1875 7.3125 -1.1875 C 8.800781 -1.1875 9.921875 -1.648438 10.671875 -2.578125 C 11.429688 -3.515625 11.8125 -4.890625 11.8125 -6.703125 C 11.8125 -8.503906 11.429688 -9.867188 10.671875 -10.796875 C 9.921875 -11.734375 8.804688 -12.203125 7.328125 -12.203125 C 5.847656 -12.203125 4.722656 -11.734375 3.953125 -10.796875 C 3.179688 -9.859375 2.796875 -8.492188 2.796875 -6.703125 Z M 2.796875 -6.703125 "/></g></g></g><g fill="#252243" fill-opacity="1"><g transform="translate(230.366227, 23.625023)"><g><path d="M 11.953125 -13.390625 L 11.953125 -4.71875 C 11.953125 -3.195312 11.488281 -2 10.5625 -1.125 C 9.644531 -0.25 8.378906 0.1875 6.765625 0.1875 C 5.148438 0.1875 3.898438 -0.25 3.015625 -1.125 C 2.140625 -2.007812 1.703125 -3.222656 1.703125 -4.765625 L 1.703125 -13.390625 L 3.265625 -13.390625 L 3.265625 -4.65625 C 3.265625 -3.53125 3.566406 -2.671875 4.171875 -2.078125 C 4.785156 -1.484375 5.679688 -1.1875 6.859375 -1.1875 C 7.992188 -1.1875 8.863281 -1.484375 9.46875 -2.078125 C 10.082031 -2.679688 10.390625 -3.546875 10.390625 -4.671875 L 10.390625 -13.390625 Z M 11.953125 -13.390625 "/></g></g></g><g fill="#252243" fill-opacity="1"><g transform="translate(244.008214, 23.625023)"><g><path d="M 9.484375 -13.390625 L 11.15625 -13.390625 L 6.328125 0 L 4.796875 0 L 0 -13.390625 L 1.640625 -13.390625 L 4.71875 -4.71875 C 5.070312 -3.726562 5.351562 -2.765625 5.5625 -1.828125 C 5.78125 -2.816406 6.066406 -3.800781 6.421875 -4.78125 Z M 9.484375 -13.390625 "/></g></g></g><g fill="#252243" fill-opacity="1"><g transform="translate(255.161522, 23.625023)"><g><path d="M 9.296875 0 L 1.84375 0 L 1.84375 -13.390625 L 9.296875 -13.390625 L 9.296875 -12 L 3.390625 -12 L 3.390625 -7.6875 L 8.9375 -7.6875 L 8.9375 -6.3125 L 3.390625 -6.3125 L 3.390625 -1.390625 L 9.296875 -1.390625 Z M 9.296875 0 "/></g></g></g><g fill="#252243" fill-opacity="1"><g transform="translate(265.582866, 23.625023)"><g><path d="M 3.390625 -5.5625 L 3.390625 0 L 1.84375 0 L 1.84375 -13.390625 L 5.515625 -13.390625 C 7.148438 -13.390625 8.359375 -13.070312 9.140625 -12.4375 C 9.929688 -11.8125 10.328125 -10.867188 10.328125 -9.609375 C 10.328125 -7.835938 9.429688 -6.640625 7.640625 -6.015625 L 11.265625 0 L 9.4375 0 L 6.1875 -5.5625 Z M 3.390625 -6.90625 L 5.53125 -6.90625 C 6.625 -6.90625 7.425781 -7.125 7.9375 -7.5625 C 8.457031 -8 8.71875 -8.648438 8.71875 -9.515625 C 8.71875 -10.398438 8.457031 -11.035156 7.9375 -11.421875 C 7.414062 -11.816406 6.578125 -12.015625 5.421875 -12.015625 L 3.390625 -12.015625 Z M 3.390625 -6.90625 "/></g></g></g><g fill="#252243" fill-opacity="1"><g transform="translate(277.166198, 23.625023)"><g><path d="M 12.296875 0 L 10.515625 0 L 3.203125 -11.234375 L 3.125 -11.234375 C 3.226562 -9.910156 3.28125 -8.703125 3.28125 -7.609375 L 3.28125 0 L 1.84375 0 L 1.84375 -13.390625 L 3.59375 -13.390625 L 10.890625 -2.203125 L 10.96875 -2.203125 C 10.957031 -2.359375 10.929688 -2.882812 10.890625 -3.78125 C 10.847656 -4.675781 10.832031 -5.316406 10.84375 -5.703125 L 10.84375 -13.390625 L 12.296875 -13.390625 Z M 12.296875 0 "/></g></g></g><g fill="#252243" fill-opacity="1"><g transform="translate(291.293104, 23.625023)"><g><path d="M 10.25 0 L 8.59375 -4.25 L 3.21875 -4.25 L 1.578125 0 L 0 0 L 5.296875 -13.4375 L 6.59375 -13.4375 L 11.859375 0 Z M 8.109375 -5.65625 L 6.546875 -9.8125 C 6.347656 -10.332031 6.140625 -10.972656 5.921875 -11.734375 C 5.785156 -11.148438 5.59375 -10.507812 5.34375 -9.8125 L 3.765625 -5.65625 Z M 8.109375 -5.65625 "/></g></g></g><g fill="#252243" fill-opacity="1"><g transform="translate(303.150911, 23.625023)"><g><path d="M 12.296875 0 L 10.515625 0 L 3.203125 -11.234375 L 3.125 -11.234375 C 3.226562 -9.910156 3.28125 -8.703125 3.28125 -7.609375 L 3.28125 0 L 1.84375 0 L 1.84375 -13.390625 L 3.59375 -13.390625 L 10.890625 -2.203125 L 10.96875 -2.203125 C 10.957031 -2.359375 10.929688 -2.882812 10.890625 -3.78125 C 10.847656 -4.675781 10.832031 -5.316406 10.84375 -5.703125 L 10.84375 -13.390625 L 12.296875 -13.390625 Z M 12.296875 0 "/></g></g></g><g fill="#252243" fill-opacity="1"><g transform="translate(317.277817, 23.625023)"><g><path d="M 7.578125 -12.1875 C 6.097656 -12.1875 4.929688 -11.695312 4.078125 -10.71875 C 3.234375 -9.738281 2.8125 -8.394531 2.8125 -6.6875 C 2.8125 -4.9375 3.222656 -3.582031 4.046875 -2.625 C 4.867188 -1.675781 6.035156 -1.203125 7.546875 -1.203125 C 8.484375 -1.203125 9.550781 -1.367188 10.75 -1.703125 L 10.75 -0.34375 C 9.820312 0.0078125 8.675781 0.1875 7.3125 0.1875 C 5.34375 0.1875 3.820312 -0.410156 2.75 -1.609375 C 1.675781 -2.804688 1.140625 -4.503906 1.140625 -6.703125 C 1.140625 -8.085938 1.394531 -9.296875 1.90625 -10.328125 C 2.425781 -11.367188 3.171875 -12.171875 4.140625 -12.734375 C 5.117188 -13.296875 6.269531 -13.578125 7.59375 -13.578125 C 9 -13.578125 10.222656 -13.320312 11.265625 -12.8125 L 10.609375 -11.46875 C 9.597656 -11.945312 8.585938 -12.1875 7.578125 -12.1875 Z M 7.578125 -12.1875 "/></g></g></g><g fill="#252243" fill-opacity="1"><g transform="translate(329.09906, 23.625023)"><g><path d="M 9.296875 0 L 1.84375 0 L 1.84375 -13.390625 L 9.296875 -13.390625 L 9.296875 -12 L 3.390625 -12 L 3.390625 -7.6875 L 8.9375 -7.6875 L 8.9375 -6.3125 L 3.390625 -6.3125 L 3.390625 -1.390625 L 9.296875 -1.390625 Z M 9.296875 0 "/></g></g></g><g fill="#252243" fill-opacity="1"><g transform="translate(339.520393, 23.625023)"><g/></g></g><g fill="#252243" fill-opacity="1"><g transform="translate(344.387954, 23.625023)"><g><path d="M 9.296875 0 L 1.84375 0 L 1.84375 -13.390625 L 9.296875 -13.390625 L 9.296875 -12 L 3.390625 -12 L 3.390625 -7.6875 L 8.9375 -7.6875 L 8.9375 -6.3125 L 3.390625 -6.3125 L 3.390625 -1.390625 L 9.296875 -1.390625 Z M 9.296875 0 "/></g></g></g><g fill="#252243" fill-opacity="1"><g transform="translate(354.80931, 23.625023)"><g><path d="M 12.296875 0 L 10.515625 0 L 3.203125 -11.234375 L 3.125 -11.234375 C 3.226562 -9.910156 3.28125 -8.703125 3.28125 -7.609375 L 3.28125 0 L 1.84375 0 L 1.84375 -13.390625 L 3.59375 -13.390625 L 10.890625 -2.203125 L 10.96875 -2.203125 C 10.957031 -2.359375 10.929688 -2.882812 10.890625 -3.78125 C 10.847656 -4.675781 10.832031 -5.316406 10.84375 -5.703125 L 10.84375 -13.390625 L 12.296875 -13.390625 Z M 12.296875 0 "/></g></g></g></svg>