<svg width="93" height="43" viewBox="0 0 93 43" fill="none" xmlns="http://www.w3.org/2000/svg">
<g clip-path="url(#clip0_1476_1943)">
<path d="M30.9337 28.6905L30.5389 29.2335C29.727 30.3498 28.6343 31.2723 27.288 31.9725C25.9449 32.6712 24.3419 33.0268 22.5207 33.0268C20.9466 33.0268 19.4816 32.741 18.1658 32.1774C16.85 31.6153 15.7075 30.8229 14.7656 29.821C13.8221 28.8175 13.0712 27.5901 12.5352 26.1738C11.9961 24.7527 11.7233 23.1617 11.7233 21.4452C11.7233 19.7288 11.9961 18.206 12.5352 16.8024C13.0712 15.4051 13.8317 14.1761 14.7945 13.152C15.7557 12.131 16.919 11.3196 18.254 10.7385C19.5891 10.1573 21.0814 9.86359 22.6908 9.86359C24.1542 9.86359 25.6032 10.151 26.9992 10.7163C28.3631 11.2704 29.4783 12.1278 30.3143 13.2663L30.7219 13.8205L38.1785 6.44182L37.811 6.02899C36.054 4.05849 33.7321 2.54053 30.9128 1.52114C28.1176 0.511281 25.2373 0 22.3506 0C19.2345 0 16.2868 0.503342 13.5878 1.49415C10.8809 2.48972 8.48839 3.93623 6.47781 5.7924C4.46082 7.65492 2.85942 9.93822 1.71854 12.5788C0.57766 15.2193 0 18.2013 0 21.4436C0 24.686 0.568032 27.5552 1.68965 30.1926C2.81128 32.8315 4.38059 35.1323 6.35586 37.0298C8.33114 38.9272 10.6947 40.4118 13.3825 41.4455C16.0638 42.476 19.0243 42.9984 22.1821 42.9984C25.6513 42.9984 28.7659 42.3871 31.4375 41.1788C34.1076 39.972 36.3877 38.3096 38.2106 36.2359L38.5845 35.8103L30.9353 28.6857L30.9337 28.6905Z" fill="#34388F"/>
<path d="M93 1.19556H82.8958V42.3981H93V1.19556Z" fill="#34388F"/>
<path d="M80.3219 42.3997L64.2293 1.19556H54.4829L38.3903 42.3981H51.0185L56.256 25.14C55.2242 24.2715 54.5679 22.9774 54.5679 21.5309C54.5679 18.9141 56.7117 16.7928 59.3561 16.7928C62.0005 16.7928 64.1443 18.9141 64.1443 21.5309C64.1443 22.9774 63.488 24.2715 62.4562 25.14L67.6937 42.3981H80.3219V42.3997Z" fill="#34388F"/>
</g>
<defs>
<clipPath id="clip0_1476_1943">
<rect width="93" height="43" fill="#34388F"/>
</clipPath>
</defs>
</svg>
