<svg version="1.0" id="Layer_1" xmlns="http://www.w3.org/2000/svg" xmlns:xlink="http://www.w3.org/1999/xlink" x="0px" y="0px"
     viewBox="0 0 738.4 259.8" enable-background="new 0 0 738.4 259.8" xml:space="preserve">
    <g class="header__logo__letters">
        <rect y="133.5" fill="#00B7CE" width="27.2" height="125.701"/>
        <path d="M27.2,0L27.2,0L27.2,0z"/>
        <polygon fill="#DA1B66" points="27.3,75.2 0,0 0,125.5 27.3,125.5        "/>
        <polygon fill="#DA1B66" points="35.3,259.201 62.6,259.201 62.6,208.6 35.3,133.5         "/>
        <rect x="205.4" fill="#004A7C" width="27.2" height="125.5"/>
        <rect x="232.6" y="98.7" fill="#DA1B66" width="26.8" height="26.8"/>
        <polygon fill="#7A2F6F" points="170.4,26.8 143.2,26.8 143.2,125.6 170.4,125.6       "/>
        <rect x="116.4" fill="#DA1B66" width="80.8" height="26.8"/>
        <polygon fill="#00B7CE" points="232.6,133.5 205.4,133.5 205.4,259.1 232.6,259.1 232.6,232.3         "/>
        <rect x="232.6" y="232.3" fill="#7A2F6F" width="26.8" height="26.8"/>
        <polygon fill="#004A7C" points="170.4,160.3 143.2,160.3 143.2,259.201 170.5,259.201         "/>
        <rect x="116.4" y="133.5" fill="#DA1B66" width="80.8" height="26.801"/>
        <polygon fill="#004A7C" points="62.6,133.5 35.3,133.5 80.9,259.201 80.9,184         "/>
        <rect x="80.9" y="133.5" fill="#7A2F6F" width="27.2" height="125.701"/>
        <polygon points="27.2,0 27.2,0 0,0 0,0 0,0      "/>
        <path d="M67.8,111.8L67.8,111.8L67.8,111.8z"/>
        <polygon fill="#7A2F6F" points="27.2,0 27.2,0 0,0 0,0 27.3,75.2 40.5,111.8 54.2,74.2        "/>
        <path d="M81.1,0L81.1,0L81.1,0z"/>
        <path d="M40.5,111.8L40.5,111.8L40.5,111.8z"/>
        <polygon points="108.3,0 108.3,0 81.1,0 81.1,0      "/>
        <polygon fill="#004A7C" points="54.2,74.2 40.5,111.8 40.5,111.8 67.8,111.8 67.8,111.8 81,75.2 81.1,0        "/>
        <polygon fill="#00B7CE" points="81.1,0 81.1,0 81,75.2 81,125.5 108.3,125.5 108.3,0 108.3,0      "/>
    </g>
    <g class="header__logo__words">
        <path d="M310.5,133.6h11l15,47.3l15-47.3h11v54h-6.8v-47.399h-0.3l-15,47.399h-8l-15-47.399H317.1V187.6h-6.8v-54H310.5z"/>
        <path d="M371.7,167.701c0-13.701,7.899-21,19-21c11,0,18.899,7.299,18.899,21c0,13.399-8,20.699-18.899,20.699
            C379.6,188.5,371.7,181.1,371.7,167.701z M403.4,167.701c0-10.5-5.101-15.301-12.801-15.301c-7.6,0-12.6,4.9-12.6,15.301
            c0,10.199,5,15,12.6,15C398.4,182.701,403.4,177.9,403.4,167.701z"/>
        <path d="M418.1,147.5h6.5v5.9h0.4c2.3-3.9,6.3-6.699,11.7-6.699c8.3,0,13.5,5.799,13.5,14.699v26.1h-6.5v-25.299
            c0-7-3.101-9.801-8.101-9.801c-6.3,0-10.899,4.6-10.899,11.4v23.6h-6.5v-39.9H418.1z"/>
        <path d="M462.1,176.9v-24.4h-6v-5h6V133.6h6.4V147.5h10.6v5h-10.6v23c0,5,1.5,6.701,5.8,6.701h4.8v5.299H472.4
            C465.4,187.6,462.1,184.1,462.1,176.9z"/>
        <path d="M487.8,147.5h6.5v6.4h0.2c2-4.5,5.5-7,9.7-7c2.1,0,4,0.2,5.2,0.7v5.8c-1.9-0.4-3.5-0.5-4.7-0.4
            c-6.601,0.5-10.4,6.601-10.4,16.9v17.7h-6.5V147.5L487.8,147.5z"/>
        <path d="M548,169.701h-29c0.6,7.5,4.5,12.799,13,12.799c3.9,0,7.6-1.199,10.8-3.899l3.9,4c-4.601,4.2-9.5,5.7-14.7,5.7
            c-13.5,0-19.6-9.7-19.6-20.7c0-10.8,5.5-20.899,18.399-20.899c13.101,0,17.3,10.6,17.3,20.299C548.2,168.3,548.2,169,548,169.701
            z M519.1,164.5h22.7c-0.3-7-3.8-12.1-11-12.1C523.1,152.4,519.5,157.701,519.1,164.5z M533.2,142.701H528.1l8.5-9.201h8.2
            L533.2,142.701z"/>
        <path d="M588,159V187.6h-6.1v-5.899c-4.301,4.5-9.5,6.699-14.101,6.699c-7.6,0-12.899-4.5-12.899-11.5c0-5,2.6-8.4,7.1-10.6
            c4.5-2.301,11.4-4,19.9-6.301V159.8c0-5.4-3.4-7.4-9.301-7.4c-5.699,0-9.199,2-12,5.801l-4.899-3.4c3.8-5.301,9-8.1,16.399-8.1
            C581.1,146.701,588,150.8,588,159z M581.9,175.201v-9.9c-6.101,1.8-12.4,3.8-15.801,5.5c-2.8,1.5-4.3,3.4-4.3,5.9
            c0,3.799,3.101,6,6.7,6C573.9,182.701,578.5,179.201,581.9,175.201z"/>
        <path d="M599.3,133.6h6.5v54h-6.5V133.6z"/>
        <path d="M310.5,205h6.9v54h-6.9V205z"/>
        <path d="M331.4,218.9h6.5v5.9h0.399c2.3-3.9,6.3-6.7,11.7-6.7c8.3,0,13.5,5.8,13.5,14.7V259H357v-25.299c0-7-3.1-9.801-8.1-9.801
            c-6.301,0-10.9,4.6-10.9,11.4V259h-6.5v-40.1H331.4z"/>
        <path d="M375.4,248.3v-24.4h-6v-5h6V205h6.399v13.9H392.4v5H381.8v23c0,5,1.5,6.7,5.8,6.7h4.801v5.3h-6.7
            C378.7,259,375.4,255.5,375.4,248.3z"/>
        <path d="M432.4,241.1h-29c0.6,7.5,4.5,12.8,13,12.8c3.899,0,7.6-1.199,10.8-3.9l3.899,4c-4.6,4.201-9.5,5.701-14.699,5.701
            C402.9,259.701,396.8,250,396.8,239c0-10.799,5.5-20.899,18.4-20.899c13.1,0,17.3,10.601,17.3,20.3
            C432.6,239.701,432.6,240.4,432.4,241.1z M403.5,235.9h22.7c-0.3-7-3.8-12.1-11-12.1C407.4,223.8,403.9,229.1,403.5,235.9z"/>
        <path d="M442.5,218.9h6.5v6.4h0.2c2-4.5,5.5-7,9.7-7c2.1,0,4,0.199,5.199,0.699v5.801c-1.899-0.4-3.5-0.5-4.699-0.4
            c-6.601,0.5-10.4,6.6-10.4,16.9V259h-6.5V218.9L442.5,218.9z"/>
        <path d="M471.6,218.9h6.5v5.9h0.4c2.3-3.9,6.3-6.7,11.7-6.7c8.3,0,13.5,5.8,13.5,14.7V259h-6.5v-25.299
            c0-7-3.101-9.801-8.101-9.801c-6.3,0-10.899,4.6-10.899,11.4V259h-6.5v-40.1H471.6z"/>
        <path d="M545.8,230.4V259h-6.1V253.1c-4.3,4.5-9.5,6.7-14.101,6.7c-7.6,0-12.899-4.5-12.899-11.5c0-5,2.6-8.4,7.1-10.6
            c4.5-2.301,11.4-4,19.9-6.301v-0.199c0-5.4-3.4-7.4-9.3-7.4c-5.7,0-9.2,2-12,5.8l-4.9-3.399c3.8-5.301,9-8.101,16.4-8.101
            C538.9,218.1,545.8,222.201,545.8,230.4z M539.7,246.6v-9.899c-6.101,1.799-12.4,3.799-15.8,5.5
            c-2.801,1.5-4.301,3.399-4.301,5.899c0,3.8,3.101,6,6.7,6C531.7,254.1,536.3,250.6,539.7,246.6z"/>
        <path d="M557.8,248.3v-24.4h-6v-5h6V205h6.4v13.9h10.6v5h-10.6v23c0,5,1.5,6.7,5.8,6.7h4.8v5.3h-6.7
            C561.1,259,557.8,255.5,557.8,248.3z"/>
        <path d="M583.6,205h6.5v7.701h-6.5V205z M583.6,218.9h6.5V259h-6.5V218.9z"/>
        <path d="M600,239.1c0-13.7,7.9-21,19-21c11,0,18.9,7.3,18.9,21c0,13.399-8,20.7-18.9,20.7C607.9,259.8,600,252.5,600,239.1z
             M631.8,239.1c0-10.5-5.1-15.3-12.8-15.3c-7.6,0-12.6,4.9-12.6,15.3c0,10.2,5,15,12.6,15C626.7,254.1,631.8,249.3,631.8,239.1z"
            />
        <path d="M646.4,218.9h6.5v5.9h0.399c2.3-3.9,6.3-6.7,11.7-6.7c8.3,0,13.5,5.8,13.5,14.7V259H672v-25.299c0-7-3.1-9.801-8.1-9.801
            c-6.301,0-10.9,4.6-10.9,11.4V259h-6.5v-40.1H646.4z"/>
        <path d="M720.6,230.4V259h-6.1V253.1c-4.3,4.5-9.5,6.7-14.1,6.7c-7.601,0-12.9-4.5-12.9-11.5c0-5,2.6-8.4,7.1-10.6
            c4.5-2.301,11.4-4,19.9-6.301v-0.199c0-5.4-3.4-7.4-9.3-7.4c-5.7,0-9.2,2-12,5.8l-4.9-3.399c3.8-5.301,9-8.101,16.4-8.101
            C713.7,218.1,720.6,222.201,720.6,230.4z M714.5,246.6v-9.899c-6.1,1.799-12.4,3.799-15.8,5.5c-2.8,1.5-4.3,3.399-4.3,5.899
            c0,3.8,3.1,6,6.699,6C706.5,254.1,711.1,250.6,714.5,246.6z"/>
        <path d="M731.9,205h6.5v54h-6.5V205z"/>
    </g>
</svg>
